<?xml version="1.0" standalone="no"?>
<!DOCTYPE svg PUBLIC "-//W3C//DTD SVG 20010904//EN"
 "http://www.w3.org/TR/2001/REC-SVG-20010904/DTD/svg10.dtd">
<svg version="1.0" xmlns="http://www.w3.org/2000/svg"
 width="512.000000pt" height="512.000000pt" viewBox="0 0 512.000000 512.000000"
 preserveAspectRatio="xMidYMid meet">
<metadata>
Created by potrace 1.16, written by Peter Selinger 2001-2019
</metadata>
<g transform="translate(0.000000,512.000000) scale(0.100000,-0.100000)"
fill="#ffffff" stroke="none">
<path d="M0 4320 l0 -800 33 0 c17 0 70 -7 117 -15 201 -37 192 -36 215 -15
16 15 24 17 33 8 7 -7 12 -17 12 -23 0 -16 102 -45 216 -60 17 -3 44 -9 58
-15 35 -13 39 -13 29 3 -6 10 45 -27 98 -71 18 -16 14 -55 -7 -73 -8 -6 -14
-17 -14 -23 0 -6 -10 -22 -23 -36 -13 -14 -22 -30 -20 -37 2 -6 -2 -17 -9 -24
-42 -44 -108 -133 -108 -145 0 -8 -4 -14 -9 -14 -5 0 -21 -25 -36 -55 -14 -30
-31 -55 -36 -55 -5 0 -9 -7 -9 -15 0 -8 -5 -15 -10 -15 -19 0 -109 -101 -103
-116 10 -27 -19 -108 -52 -144 -18 -19 -36 -46 -40 -60 -4 -13 -16 -36 -26
-50 -10 -14 -27 -51 -38 -82 -22 -65 -102 -186 -155 -238 -32 -30 -35 -38 -30
-67 6 -30 4 -34 -24 -44 -66 -23 -62 43 -62 -1049 l0 -990 495 0 495 0 4 23
c2 12 4 39 3 59 0 21 4 43 10 49 16 16 53 -20 53 -53 0 -14 4 -38 10 -52 l10
-26 140 0 c134 0 140 1 140 20 0 12 10 25 25 32 22 10 25 18 25 61 0 34 -6 57
-20 74 -11 14 -20 33 -20 42 0 20 -53 74 -63 64 -4 -3 -7 -1 -7 5 0 7 -6 12
-14 12 -7 0 -19 7 -26 15 -9 10 -9 15 -1 15 6 0 11 -4 11 -9 0 -6 10 -8 22 -6
12 3 32 -2 45 -10 12 -8 31 -15 42 -15 11 0 23 -5 26 -10 28 -46 55 108 29
164 -17 35 -18 60 -3 50 8 -4 9 1 4 16 -6 20 -5 21 14 11 18 -10 21 -9 21 6 0
10 -11 30 -24 44 -13 15 -33 46 -44 70 -21 46 -36 142 -21 133 5 -3 9 0 9 5 0
6 -4 11 -9 11 -12 0 -2 128 16 182 33 107 50 64 52 -133 1 -108 5 -169 16
-198 8 -22 11 -41 8 -41 -3 0 2 -9 11 -19 10 -11 15 -25 11 -30 -3 -6 1 -14 9
-17 9 -3 16 -17 16 -31 0 -13 4 -21 10 -18 5 3 10 12 10 20 0 8 5 26 11 42
l10 27 18 -40 c10 -23 26 -44 35 -47 25 -10 32 20 11 43 -20 22 -37 164 -22
179 4 4 9 46 11 92 2 46 9 106 15 134 7 27 12 72 13 98 0 27 6 60 14 75 9 17
10 28 3 33 -6 3 -1 17 14 35 13 16 27 39 31 51 10 30 55 111 67 118 5 4 9 11
9 17 0 6 -9 3 -19 -6 -19 -17 -19 -17 -14 3 3 12 15 28 26 36 12 9 16 15 8 15
-7 0 -30 -13 -51 -30 -21 -17 -41 -30 -44 -30 -10 0 42 86 76 124 18 21 33 45
33 54 0 9 5 17 12 17 6 0 15 3 19 7 4 5 0 8 -10 8 -14 0 -15 3 -5 23 16 30 48
57 68 57 12 0 13 2 3 8 -17 12 73 106 116 120 19 7 32 7 32 1 0 -12 67 -12 91
2 11 6 25 8 32 5 7 -3 3 -7 -10 -11 -11 -4 -23 -15 -26 -25 -3 -13 5 -21 37
-31 63 -20 157 -69 163 -85 3 -8 20 -22 37 -30 29 -13 30 -14 4 -9 -39 8 -100
36 -118 55 -3 4 -24 12 -48 18 -28 9 -40 17 -36 25 4 7 3 9 -1 4 -5 -4 -15 -1
-24 7 -22 20 -67 30 -75 17 -4 -6 -1 -11 6 -11 19 0 68 -23 68 -32 0 -5 8 -8
18 -8 10 0 23 -5 29 -11 15 -15 44 -32 123 -70 36 -18 75 -40 88 -50 33 -25
101 -11 102 22 0 3 -15 20 -32 39 -24 23 -27 30 -11 22 12 -7 24 -17 26 -24 3
-8 6 -7 6 4 1 10 -5 22 -11 28 -66 54 -65 53 -23 29 44 -25 69 -52 54 -57 -14
-5 -11 -22 4 -22 7 0 18 -9 25 -21 20 -31 26 -15 8 20 -9 17 -15 36 -14 43 2
7 -4 12 -12 13 -23 0 -22 45 2 45 24 0 14 18 -16 30 l-21 9 23 0 c12 1 22 -3
22 -8 0 -5 9 -13 20 -16 22 -7 27 -31 9 -37 -8 -3 -9 -13 -4 -28 8 -25 8 -24
21 10 19 54 16 81 -13 112 -15 15 -22 28 -16 28 6 0 16 -7 23 -15 7 -8 16 -12
21 -9 5 3 9 -2 9 -12 0 -13 3 -14 15 -4 11 9 12 17 4 31 -7 15 -6 23 6 35 10
10 12 20 7 28 -14 18 -23 48 -12 41 15 -9 40 -62 33 -69 -4 -3 1 -6 10 -6 10
0 17 -8 17 -17 0 -15 -2 -16 -10 -3 -12 19 -13 5 -1 -18 5 -9 17 -33 26 -52
10 -21 14 -25 10 -10 -4 14 -8 56 -10 93 -2 50 1 67 10 63 8 -3 10 4 7 22 -5
24 -3 26 11 13 10 -8 17 -28 17 -47 0 -19 4 -34 9 -34 9 0 5 101 -5 130 -4 10
-2 12 5 5 6 -6 12 -23 13 -38 3 -33 20 -30 33 7 6 18 6 33 -2 45 -7 11 -9 51
-5 111 4 84 3 93 -12 87 -10 -4 -16 -1 -16 7 0 7 -6 26 -14 42 -14 27 -20 61
-17 93 1 11 5 10 21 -4 20 -18 20 -17 20 15 0 18 2 31 5 28 10 -10 35 -120 29
-129 -3 -5 0 -9 7 -9 8 0 10 -14 7 -45 -3 -27 -1 -45 4 -45 7 0 6 -5 0 -13
-12 -14 -17 -80 -14 -171 3 -79 15 -63 18 22 2 87 3 89 13 74 8 -14 22 123 17
168 -2 14 -4 40 -5 58 0 17 -6 32 -12 32 -6 0 -8 -8 -5 -17 3 -10 1 -25 -5
-33 -9 -13 -10 -12 -5 2 3 10 -1 24 -9 32 -22 21 -18 34 9 31 21 -3 23 0 16
24 -8 30 5 79 28 101 13 13 14 13 9 -2 -3 -10 0 -32 7 -49 13 -31 14 -31 25
-11 14 27 14 35 -1 25 -7 -4 -5 5 4 19 15 22 15 27 3 32 -8 3 -15 15 -15 26 0
20 1 20 16 6 21 -22 23 -21 35 14 6 17 14 30 18 30 13 0 4 -53 -11 -64 -9 -7
-21 -41 -27 -81 -6 -39 -14 -83 -17 -100 -3 -20 1 -15 12 15 9 25 20 48 25 51
5 3 12 16 14 29 9 49 23 41 20 -11 -3 -45 -1 -51 10 -36 7 9 18 17 24 17 7 0
9 5 6 10 -3 6 1 10 11 10 13 0 14 -3 4 -15 -6 -8 -9 -19 -5 -25 4 -6 1 -18 -6
-26 -15 -18 -20 -64 -7 -64 6 0 8 6 5 14 -4 10 0 12 14 9 12 -3 18 -11 15 -19
-3 -9 1 -11 12 -8 14 5 13 3 -2 -10 -11 -9 -24 -16 -30 -16 -5 0 -7 -3 -4 -6
4 -3 20 2 37 10 27 14 30 14 25 1 -4 -8 -10 -15 -16 -15 -5 0 -7 -4 -3 -9 3
-5 1 -12 -4 -15 -14 -9 -10 -66 4 -66 23 0 73 31 88 54 14 21 47 32 47 15 0
-5 15 -6 32 -2 32 6 32 6 15 -11 -13 -13 -28 -17 -50 -13 -26 4 -38 -1 -67
-29 -37 -36 -38 -57 0 -24 23 20 48 18 32 -3 -11 -14 -12 -48 -1 -42 4 3 22 2
40 -2 32 -6 32 -6 8 -16 -13 -5 -29 -10 -34 -11 -6 -1 -21 -9 -35 -19 -34 -24
-47 -21 -24 5 10 12 -16 -5 -58 -37 -43 -32 -76 -61 -73 -63 2 -2 17 5 34 17
18 13 32 17 36 11 3 -5 1 -10 -5 -10 -7 0 -10 -6 -7 -14 3 -8 -2 -20 -11 -28
-15 -12 -16 -11 -3 5 11 14 11 17 -1 17 -18 0 -58 -29 -40 -30 7 0 10 -5 7
-11 -4 -6 -12 -8 -19 -6 -7 3 -13 -4 -13 -16 -1 -11 -11 -29 -22 -39 -12 -10
-16 -13 -11 -6 6 7 10 16 10 21 0 16 -20 -4 -37 -36 -15 -30 -15 -31 0 -18 23
18 21 6 -3 -27 -10 -15 -22 -40 -25 -57 -5 -29 -5 -30 6 -5 10 20 13 22 16 8
6 -23 -28 -93 -37 -78 -4 7 -10 -3 -14 -25 -4 -20 -10 -44 -13 -53 -13 -33 24
7 38 41 7 18 16 34 20 37 12 9 63 115 61 126 -1 7 25 34 59 60 34 27 69 56 79
65 9 8 24 18 33 22 10 4 14 13 11 21 -4 10 10 26 41 48 26 18 56 41 68 50 11
10 27 18 36 18 11 1 8 5 -9 15 -25 14 -25 14 10 9 19 -4 40 -13 46 -20 6 -8
17 -14 23 -14 7 0 9 -5 5 -11 -3 -6 -16 -8 -28 -5 -11 2 -32 -2 -46 -9 l-25
-15 30 6 c17 3 41 1 55 -5 l25 -10 -30 -1 c-23 0 -27 -3 -15 -10 12 -8 12 -10
-5 -11 l-20 0 20 -8 c11 -5 23 -4 26 1 3 4 16 -1 29 -12 l23 -20 -27 0 c-26 0
-92 -28 -84 -35 2 -3 21 0 42 6 21 6 40 8 43 5 3 -3 -6 -8 -21 -12 -35 -8 -33
-20 5 -28 17 -3 28 -10 25 -15 -3 -5 2 -7 13 -4 10 3 22 0 25 -6 4 -6 20 -11
37 -11 16 0 29 -5 29 -11 0 -6 -7 -9 -15 -5 -15 5 -22 -9 -7 -17 4 -3 29 -8
56 -11 33 -5 46 -4 41 3 -9 16 -1 14 38 -9 19 -11 41 -18 49 -15 8 3 28 -5 44
-18 16 -14 60 -38 97 -55 38 -17 81 -44 96 -59 14 -15 35 -34 46 -41 14 -9 16
-14 8 -18 -7 -3 34 -51 102 -118 63 -62 119 -123 124 -137 16 -35 33 -61 56
-80 19 -16 20 -16 26 -1 4 9 2 22 -3 29 -12 16 -2 33 20 33 22 0 95 -67 87
-80 -3 -6 0 -10 8 -10 16 0 57 -41 57 -58 0 -7 9 -21 20 -32 11 -11 35 -50 55
-87 30 -58 35 -63 30 -33 -5 33 -4 33 6 10 22 -48 48 -125 49 -144 1 -57 23
-146 37 -146 8 0 11 5 7 12 -4 7 -9 26 -11 43 -2 22 0 26 7 15 8 -13 12 -13
27 4 10 10 13 16 7 13 -22 -12 -74 76 -53 89 6 3 16 1 22 -5 25 -25 27 -9 3
20 -32 38 -35 63 -6 54 11 -4 20 -3 19 2 -6 34 15 46 24 13 3 -11 1 -20 -4
-20 -6 0 -7 -6 -1 -17 7 -11 5 -33 -5 -66 -8 -27 -12 -51 -10 -54 9 -9 57 41
57 59 0 10 7 21 15 24 21 8 47 -19 86 -93 14 -26 29 -30 29 -9 0 7 -6 32 -14
54 -10 27 -11 42 -4 44 6 2 -6 20 -26 40 -20 20 -36 45 -36 57 0 13 -5 19 -14
15 -7 -3 -16 2 -19 10 -4 9 -1 16 5 16 7 0 6 6 -2 16 -8 8 -14 35 -15 60 -1
42 7 55 20 34 3 -5 15 -10 25 -10 11 0 24 -9 30 -20 6 -11 8 -20 4 -20 -4 0 0
-8 9 -18 9 -10 19 -37 23 -61 5 -31 9 -39 15 -28 5 8 4 38 -1 67 -12 65 -12
62 2 58 6 -2 17 -20 24 -39 l12 -34 3 35 c1 19 2 48 3 64 0 16 7 31 14 34 16
5 62 -36 62 -54 0 -7 3 -15 8 -17 16 -11 4 57 -13 69 -11 8 -13 14 -7 14 7 0
12 5 12 10 0 6 -7 10 -15 10 -16 0 -84 69 -85 86 0 6 -9 19 -20 29 -11 10 -20
23 -20 29 0 6 28 -16 62 -49 62 -60 62 -52 0 14 -39 42 -67 91 -53 91 7 0 7 9
1 26 -14 35 -12 42 5 20 19 -25 30 -15 15 13 -9 17 -8 21 4 21 18 0 36 30 36
58 0 11 7 25 15 32 9 7 14 19 11 27 -3 7 -1 13 4 13 6 0 10 -6 11 -12 0 -7 4
-1 8 13 11 33 -3 200 -19 228 -6 13 -9 25 -7 28 3 3 -2 24 -12 46 -23 54 -33
105 -21 109 4 2 0 21 -11 43 -12 24 -17 50 -14 63 4 15 2 21 -4 17 -7 -3 -8 0
-5 9 3 9 1 16 -5 16 -6 0 -11 7 -11 15 0 8 8 15 18 15 10 0 13 3 6 8 -11 7
-27 83 -29 129 0 12 -3 25 -7 29 -11 11 -10 64 1 64 6 0 13 -21 16 -47 9 -64
27 -104 44 -101 16 3 34 55 21 63 -4 3 -4 20 0 39 6 28 2 41 -21 77 -16 24
-34 50 -40 57 -6 7 -8 16 -5 19 3 3 -2 12 -12 20 -16 12 -15 13 3 6 11 -3 30
-18 42 -32 33 -38 19 3 -17 49 -24 32 -35 68 -46 155 -2 17 -6 41 -9 54 -6 22
-5 23 11 10 16 -13 17 -12 12 9 -4 12 -3 22 2 22 13 0 32 -29 25 -39 -11 -18
43 -24 60 -7 13 13 15 31 11 98 -4 56 -3 78 4 68 6 -9 10 -10 10 -3 0 6 -4 15
-10 18 -5 3 -10 17 -10 29 0 13 -6 39 -14 57 -25 61 -29 82 -16 74 9 -6 9 -2
0 15 -8 15 -8 20 -1 16 6 -4 11 -2 11 3 0 20 21 11 47 -19 14 -17 28 -29 30
-26 5 5 -82 115 -106 133 -10 7 -11 12 -4 13 8 0 10 12 6 35 -6 34 -5 35 27
31 23 -3 46 -17 76 -50 24 -25 44 -51 44 -57 0 -7 -11 0 -25 15 -30 32 -40 34
-23 4 7 -13 13 -32 13 -43 0 -11 6 -19 13 -18 6 2 12 -1 12 -7 0 -5 23 -33 50
-62 28 -29 53 -61 56 -71 3 -10 11 -16 17 -14 9 3 13 106 15 385 2 359 1 382
-15 382 -17 1 -17 1 -1 14 38 28 15 284 -23 260 -8 -4 -9 -3 -5 4 4 7 14 12
22 12 8 0 13 -4 9 -9 -3 -5 -1 -12 5 -16 14 -9 14 679 0 705 -9 17 -20 19 -88
16 -71 -2 -86 -7 -191 -59 -62 -32 -120 -57 -130 -57 -13 1 -12 3 4 12 11 6
23 17 28 24 4 7 14 11 22 8 8 -4 18 1 21 10 3 9 10 14 15 11 4 -3 13 3 18 14
6 10 28 30 48 42 21 13 40 25 43 29 3 3 22 14 44 25 21 11 40 26 43 33 3 6 16
12 30 12 14 0 42 12 64 28 l39 27 0 113 0 112 -206 0 -207 0 7 -68 c5 -54 3
-80 -14 -132 -15 -47 -19 -78 -15 -111 5 -32 1 -62 -10 -94 -8 -27 -15 -55
-14 -64 3 -32 -2 -39 -31 -50 -24 -8 -38 -6 -73 9 -23 11 -43 15 -45 10 -2 -6
-8 -10 -13 -10 -4 0 -6 6 -4 13 3 7 -10 20 -30 31 -19 10 -32 23 -29 27 3 5
-2 9 -10 9 -23 0 -20 -7 21 -45 49 -45 37 -60 -51 -64 -12 -1 -16 -6 -13 -15
4 -10 1 -13 -9 -9 -7 3 -14 1 -14 -4 0 -5 -12 -10 -27 -11 -76 -7 -125 -22
-138 -41 -4 -8 -11 -6 -21 4 -9 8 -12 20 -8 26 4 7 1 10 -7 7 -8 -3 -16 -13
-17 -24 -6 -28 -20 -40 -34 -26 -8 8 -8 15 1 25 9 12 8 16 -8 20 -14 3 -18 1
-14 -10 13 -34 -118 3 -174 49 -26 21 -15 54 25 71 48 20 215 30 249 14 19 -8
26 -8 32 2 6 9 10 9 20 -2 12 -15 61 -20 61 -7 0 3 7 7 15 7 8 0 15 -4 15 -9
0 -4 7 -8 16 -8 9 0 12 -5 8 -12 -4 -6 -3 -8 4 -4 6 3 22 2 37 -4 20 -8 31 -7
42 2 13 10 11 13 -9 21 -12 6 -31 9 -40 8 -22 -3 -22 7 -3 33 18 24 19 31 1
48 -7 8 -21 29 -30 46 -11 22 -48 53 -109 92 -51 33 -97 60 -104 60 -6 0 -28
9 -47 21 -20 12 -36 17 -36 12 0 -4 -4 -2 -8 5 -5 7 -26 15 -48 18 -70 8 -114
23 -114 36 0 6 -10 8 -22 4 -27 -7 -78 14 -78 31 0 7 -11 13 -24 13 -14 0 -28
5 -31 10 -3 6 -25 10 -49 10 -23 0 -51 7 -62 15 -16 12 -68 14 -291 15 -150 0
-273 -3 -273 -6 0 -3 9 -17 20 -31 19 -24 19 -49 -1 -38 -12 8 -44 -24 -33
-33 5 -4 8 -6 7 -4 -1 2 3 10 10 17 9 10 18 9 44 -1 18 -8 40 -14 50 -14 31 0
88 -46 90 -71 1 -13 14 -34 28 -46 30 -27 32 -56 5 -103 l-21 -35 29 33 c16
17 31 32 35 32 7 0 37 -66 37 -81 0 -5 -7 -9 -15 -9 -8 0 -15 5 -15 10 0 6 -4
10 -10 10 -5 0 -10 -8 -10 -17 0 -10 -13 -25 -29 -35 -26 -14 -30 -15 -35 -1
-4 9 -1 22 5 29 9 12 9 13 -3 9 -11 -4 -18 2 -22 19 -10 41 -22 30 -19 -16 1
-24 0 -35 -3 -25 -3 9 -10 17 -15 17 -5 0 -9 10 -9 23 l-1 22 -13 -24 c-8 -15
-23 -25 -42 -26 -24 -2 -35 6 -63 42 -19 24 -36 41 -38 39 -3 -3 7 -21 23 -41
43 -56 14 -70 -84 -41 -44 14 -61 23 -58 33 4 10 1 11 -12 4 -12 -6 -28 -4
-52 7 -19 10 -46 16 -60 15 -14 0 -66 -2 -116 -3 -51 -1 -97 -5 -103 -9 -14
-9 -2 -51 14 -51 7 0 18 -7 25 -15 7 -8 34 -18 61 -21 27 -4 52 -10 55 -15 8
-14 -15 -49 -30 -43 -8 3 -18 -1 -22 -8 -8 -13 -10 -18 -13 -38 -1 -12 -30 -2
-54 18 -15 13 -17 13 -12 1 3 -9 -6 -19 -25 -28 -28 -12 -33 -11 -45 5 -8 11
-15 23 -15 27 0 5 -4 6 -9 2 -6 -3 -14 3 -20 12 -14 24 -14 7 0 -20 6 -12 -10
-1 -36 26 -51 51 -61 58 -45 28 12 -24 13 -34 1 -26 -5 3 -12 1 -15 -4 -4 -5
-20 -8 -36 -6 -18 3 -28 0 -25 -5 4 -6 -3 -10 -15 -10 -14 0 -19 -4 -15 -12 4
-7 -3 -2 -14 11 l-21 23 0 -26 c0 -30 -14 -34 -30 -8 -10 16 -10 16 -8 -2 2
-10 -3 -21 -9 -23 -7 -3 -13 0 -13 6 0 6 -7 8 -15 5 -11 -5 -12 -10 -3 -23 16
-27 2 -71 -23 -71 -11 0 -17 -4 -14 -10 3 -5 22 -10 41 -10 19 0 34 -5 34 -11
0 -7 -10 -9 -26 -5 -20 6 -27 3 -31 -14 -3 -11 -10 -20 -17 -19 -15 3 -46 -11
-46 -21 0 -5 10 -6 23 -4 15 4 13 1 -8 -9 -19 -9 -34 -11 -42 -5 -7 5 -17 7
-23 3 -17 -10 -50 5 -50 23 0 15 2 15 10 2 7 -11 10 -11 10 -2 0 7 6 19 12 26
11 11 17 11 35 -1 27 -18 28 -16 8 31 -16 38 -31 49 -22 17 4 -16 -1 -19 -33
-17 -30 1 -36 4 -30 16 4 8 6 22 3 30 -2 8 2 5 8 -7 16 -30 39 -38 39 -13 0
13 7 20 20 20 11 0 20 7 20 15 0 8 9 24 19 34 11 11 17 22 14 25 -4 3 2 6 12
6 36 0 -14 38 -58 45 -64 10 -77 15 -77 31 0 8 4 14 8 14 14 0 95 61 89 66 -3
3 -14 0 -24 -7 -46 -28 -105 6 -122 70 -5 18 -15 25 -36 26 -76 5 -134 32
-203 93 -38 34 -74 62 -79 62 -13 0 -53 44 -53 58 0 24 -23 60 -47 71 -14 7
-92 11 -197 11 -148 0 -175 -2 -180 -16 -3 -8 -2 -12 4 -9 5 3 14 -14 21 -37
6 -23 22 -64 35 -89 13 -26 32 -78 43 -116 18 -64 74 -230 88 -263 3 -8 15
-44 25 -80 38 -127 47 -156 66 -206 11 -28 23 -73 27 -100 4 -27 12 -58 18
-69 14 -25 17 -39 24 -100 4 -44 2 -53 -21 -74 -69 -64 -136 2 -182 179 -3 14
-12 39 -19 55 -23 52 -75 215 -75 236 0 30 -67 252 -107 354 -19 50 -54 144
-78 210 l-43 120 -481 3 -481 2 0 -800z m3124 722 c3 -5 -1 -9 -9 -9 -8 0 -12
4 -9 9 3 4 7 8 9 8 2 0 6 -4 9 -8z m1638 -295 c-21 -24 -24 -16 -10 23 10 29
12 31 18 14 5 -12 2 -26 -8 -37z m-3077 23 c-3 -5 -11 -10 -16 -10 -6 0 -7 5
-4 10 3 6 11 10 16 10 6 0 7 -4 4 -10z m2680 -90 c-3 -5 -14 -10 -23 -10 -15
0 -15 2 -2 10 20 13 33 13 25 0z m-1595 -21 c0 -8 5 -7 15 1 9 7 18 11 20 8
10 -10 -25 -30 -40 -24 -17 6 -21 26 -5 26 6 0 10 -5 10 -11z m-20 -19 c0 -5
-7 -10 -15 -10 -8 0 -15 5 -15 10 0 6 7 10 15 10 8 0 15 -4 15 -10z m87 -7 c2
-6 -7 -13 -21 -15 -21 -4 -23 -3 -13 14 12 19 28 19 34 1z m67 2 c-4 -8 -10
-15 -14 -15 -4 0 -10 7 -14 15 -4 10 1 15 14 15 13 0 18 -5 14 -15z m60 9 c15
-6 23 -44 10 -44 -8 0 -33 32 -34 43 0 9 4 9 24 1z m926 -63 c2 -1 -1 -6 -8
-13 -17 -17 -45 -19 -38 -3 3 8 0 16 -7 19 -9 4 24 2 53 -3z m35 -39 c-3 -3
-11 0 -18 7 -9 10 -8 11 6 5 10 -3 15 -9 12 -12z m-126 -6 c-2 -2 -20 -11 -39
-20 l-35 -17 24 21 c13 11 30 20 39 20 8 0 13 -2 11 -4z m-800 -43 c-1 -5 -1
-16 0 -25 1 -22 21 -24 21 -3 0 8 4 15 10 15 17 0 5 -39 -20 -60 -18 -16 -25
-17 -32 -8 -7 11 -11 6 -10 -12 0 -3 -11 -6 -25 -6 -17 -2 -23 2 -19 12 3 9 0
11 -11 7 -11 -4 -14 -2 -11 8 3 8 11 13 17 12 6 -2 11 3 12 10 1 6 5 1 9 -13
l8 -25 1 24 c1 21 3 22 18 10 15 -13 15 -12 4 9 -9 17 -9 25 1 37 14 15 29 20
27 8z m-88 -28 c5 4 9 1 9 -4 0 -6 -7 -11 -15 -11 -9 0 -15 9 -14 23 1 17 2
18 6 4 2 -9 9 -15 14 -12z m826 -49 c-2 -6 -14 -17 -28 -23 -20 -11 -25 -10
-27 3 -2 8 1 21 8 28 12 16 53 9 47 -8z m-1831 -31 c4 -8 11 -15 16 -15 6 0 7
7 4 16 -3 8 -2 12 4 9 14 -9 12 -35 -3 -35 -7 0 -20 9 -30 20 -9 11 -12 20 -7
20 6 0 13 -7 16 -15z m314 -15 c0 -5 -2 -10 -4 -10 -3 0 -8 5 -11 10 -3 6 -1
10 4 10 6 0 11 -4 11 -10z m-360 -35 c9 -11 7 -12 -9 -8 -11 3 -25 11 -31 18
-9 11 -7 12 9 8 11 -3 25 -11 31 -18z m-917 -16 c-6 -6 -19 -9 -29 -6 -16 4
-15 5 4 6 12 0 22 6 22 13 0 6 3 8 7 5 4 -4 2 -12 -4 -18z m77 7 c0 -14 -48
-32 -57 -22 -3 3 -3 12 0 21 8 19 57 20 57 1z m676 -62 c18 -14 18 -14 -6 -3
-31 14 -36 19 -24 19 6 0 19 -7 30 -16z m-56 -45 c0 -6 -4 -7 -10 -4 -5 3 -10
11 -10 16 0 6 5 7 10 4 6 -3 10 -11 10 -16z m137 5 c-3 -3 -12 -4 -19 -1 -8 3
-5 6 6 6 11 1 17 -2 13 -5z m621 -58 c27 -9 29 -22 3 -29 -12 -3 -27 3 -35 12
-27 30 -19 34 32 17z m789 -26 c-5 -18 -4 -18 19 -3 32 21 31 0 -1 -25 -16
-13 -22 -23 -15 -27 8 -5 6 -13 -6 -26 -23 -26 -37 -24 -23 4 12 21 11 21 -6
7 -20 -16 -20 -15 10 47 22 46 30 55 22 23z m-732 -71 c4 -5 -3 -9 -14 -9 -12
0 -21 -4 -21 -10 0 -5 3 -9 8 -9 22 4 42 -2 37 -11 -3 -5 -11 -10 -16 -10 -13
0 -89 82 -89 97 0 12 85 -30 95 -48z m-608 -52 c3 -4 -8 -7 -25 -7 -17 0 -34
4 -37 10 -7 11 51 8 62 -3z m593 -7 c8 -5 11 -12 7 -16 -4 -4 -15 0 -24 9 -18
18 -8 23 17 7z m-839 -9 c4 -1 6 -8 5 -17 0 -9 10 -23 24 -31 17 -10 20 -11
10 -2 -32 29 -22 39 23 22 52 -20 60 -27 25 -21 -22 4 -28 1 -28 -13 0 -11 -6
-19 -14 -19 -14 0 -30 -29 -21 -38 3 -3 5 -1 5 4 0 6 16 10 36 10 21 0 32 -2
26 -4 -6 -2 -9 -9 -6 -16 3 -7 -5 -21 -17 -32 l-21 -19 22 -5 c22 -5 22 -6 4
-20 -10 -9 -15 -10 -10 -2 11 18 -9 15 -25 -5 -12 -14 -12 -16 0 -8 9 5 12 4
7 -3 -4 -6 -13 -9 -20 -6 -8 3 -32 -3 -55 -14 -27 -14 -42 -16 -45 -8 -2 6 -5
3 -5 -6 -1 -22 18 -33 32 -19 6 6 16 11 21 11 19 0 -34 -31 -55 -33 -23 -2
-49 -37 -27 -37 10 0 10 -2 1 -8 -7 -4 -14 -18 -16 -30 -2 -12 -9 -28 -15 -34
-7 -7 -12 -17 -12 -23 0 -7 -13 -30 -28 -51 -16 -22 -27 -45 -24 -52 2 -8 -2
-10 -13 -6 -9 4 -27 1 -41 -6 -13 -8 -27 -10 -31 -6 -9 9 30 42 72 61 17 8 24
14 16 15 -21 0 -101 -49 -101 -63 0 -8 -15 -11 -42 -10 -23 0 -52 -4 -65 -10
-16 -7 -33 -7 -60 2 -21 6 -58 13 -82 15 -28 2 -47 10 -53 20 -9 15 -12 14
-35 -10 -20 -22 -36 -29 -72 -30 -25 -1 -56 5 -69 13 -25 15 -42 10 -42 -13 0
-8 -2 -14 -4 -14 -2 0 -11 -3 -20 -6 -11 -4 -14 0 -11 16 3 17 1 19 -9 11 -11
-9 -13 -5 -10 19 2 18 -1 30 -8 30 -6 0 -9 3 -6 6 4 3 17 0 30 -7 21 -11 22
-11 9 4 -12 15 -11 17 7 17 12 0 24 5 27 10 9 14 -28 13 -42 -1 -9 -9 -16 -7
-29 6 -17 17 -17 17 5 10 15 -4 26 -3 31 5 5 7 20 9 44 5 31 -6 36 -10 31 -29
-6 -19 -5 -20 8 -3 17 21 28 22 21 3 -3 -8 0 -17 7 -22 8 -4 10 -3 5 4 -4 7
-3 12 3 12 5 0 12 -6 15 -12 5 -10 7 -10 12 0 3 6 10 12 15 12 6 0 7 -5 3 -12
-4 -7 -3 -8 5 -4 9 6 9 13 -2 29 -18 28 -37 33 -37 11 0 -11 -3 -14 -9 -8 -16
16 -17 38 -1 39 8 0 16 9 17 20 2 15 1 16 -5 5 -8 -17 -17 -18 -45 -5 -13 5
-15 11 -7 20 6 7 7 15 3 17 -4 3 -3 3 4 2 7 -2 15 1 19 7 3 6 11 3 18 -7 11
-15 13 -15 13 0 0 9 -4 16 -9 16 -4 0 -8 7 -8 16 0 17 25 46 33 38 3 -3 8 0
13 7 4 7 3 10 -3 6 -6 -4 -13 0 -17 8 -3 8 -1 17 4 20 16 10 11 21 -9 21 -11
0 -18 -3 -15 -7 2 -4 -3 -12 -10 -18 -12 -10 -13 -8 -9 11 5 20 27 42 43 43 3
0 10 4 17 8 6 4 18 4 26 1 18 -7 18 -44 0 -44 -11 0 -10 -36 1 -47 10 -11 25
9 19 25 -5 14 -4 15 8 6 11 -8 18 -6 32 8 9 10 14 18 10 18 -5 0 -1 5 7 11 12
9 10 10 -8 6 -19 -5 -21 -3 -11 9 6 8 20 14 31 14 11 0 31 9 45 20 14 11 33
20 42 20 10 0 22 5 29 12 7 7 12 8 12 3 0 -6 4 -4 9 3 4 7 23 16 42 19 19 2
39 6 44 6 6 1 13 5 16 10 3 4 49 8 102 9 74 1 104 6 127 20 17 10 30 23 30 30
0 19 30 46 48 43 9 -2 20 -4 23 -4z m973 -23 c9 -12 13 -24 11 -27 -6 -5 -45
29 -45 41 0 15 19 8 34 -14z m1251 -88 c-3 -5 -11 -10 -16 -10 -6 0 -7 5 -4
10 3 6 11 10 16 10 6 0 7 -4 4 -10z m-2008 -16 c-3 -3 -12 -4 -19 -1 -8 3 -5
6 6 6 11 1 17 -2 13 -5z m2012 -13 c8 -6 -5 -11 -41 -15 -30 -4 -86 -15 -126
-25 -59 -15 -76 -16 -90 -5 -15 11 -14 14 13 25 17 6 49 12 72 13 24 0 43 4
43 9 0 10 112 9 129 -2z m-2043 -53 c4 -7 4 -10 -1 -6 -4 4 -26 -5 -49 -21
-22 -16 -52 -32 -66 -36 -14 -4 -34 -15 -45 -24 -19 -16 -19 -15 -3 9 8 14 24
27 34 29 10 2 25 12 32 23 8 11 21 17 29 14 8 -3 21 1 29 9 19 18 31 19 40 3z
m-951 -48 c3 -5 -1 -10 -9 -10 -9 0 -16 5 -16 10 0 6 4 10 9 10 6 0 13 -4 16
-10z m2062 -12 c2 -17 0 -19 -7 -8 -5 8 -6 18 -4 22 8 12 10 10 11 -14z
m-2070 -35 c-3 -3 -11 -2 -17 2 -9 6 -9 10 1 16 14 8 27 -7 16 -18z m868 7
c-10 -11 -23 -20 -29 -20 -6 1 0 10 13 20 30 26 39 26 16 0z m62 -11 c-5 -19
-4 -19 18 -5 14 10 25 11 27 5 2 -7 13 -7 32 1 25 9 27 9 17 -4 -7 -8 -22 -16
-34 -18 -12 -2 -26 -13 -32 -25 -5 -13 -16 -23 -24 -23 -11 0 -11 3 -1 15 11
13 9 15 -8 12 -12 -2 -25 -7 -29 -12 -5 -4 -1 -5 7 0 12 6 13 5 3 -5 -18 -20
-29 -3 -14 21 17 28 8 34 -14 9 -10 -11 -24 -20 -32 -20 -7 0 -13 -8 -13 -18
0 -9 -9 -23 -20 -30 -12 -7 -20 -8 -20 -2 0 5 5 10 11 10 6 0 9 7 5 15 -5 13
22 35 99 82 27 16 28 16 22 -8z m-912 -9 c-3 -5 -14 -10 -23 -9 -14 0 -13 2 3
9 27 11 27 11 20 0z m764 -56 c-12 -13 -29 -24 -37 -24 -8 0 0 13 20 33 37 36
53 29 17 -9z m1421 6 c0 -5 -5 -10 -11 -10 -5 0 -7 5 -4 10 3 6 8 10 11 10 2
0 4 -4 4 -10z m1330 -30 c10 -19 10 -20 -9 -8 -22 13 -28 28 -11 28 5 0 14 -9
20 -20z m-1326 -5 c-4 -8 -11 -15 -16 -15 -6 0 -5 6 2 15 7 8 14 15 16 15 2 0
1 -7 -2 -15z m1906 -15 c0 -20 -25 -38 -37 -26 -5 5 24 46 34 46 1 0 3 -9 3
-20z m-4096 -50 c-3 -2 -9 2 -13 9 -5 7 -14 10 -20 7 -6 -4 -11 -3 -11 3 0 17
25 18 37 2 6 -9 9 -18 7 -21z m2150 23 c4 -9 1 -21 -5 -27 -9 -8 -10 -8 -5 1
3 6 2 14 -4 18 -12 8 -13 25 -1 25 5 0 12 -8 15 -17z m-1504 -3 c0 -5 -5 -10
-11 -10 -5 0 -7 5 -4 10 3 6 8 10 11 10 2 0 4 -4 4 -10z m283 -33 c3 -8 -1
-14 -8 -14 -7 0 -11 6 -8 14 3 7 6 13 8 13 2 0 5 -6 8 -13z m1835 3 c-4 -14
-88 -63 -88 -52 0 10 69 60 83 61 5 1 7 -4 5 -9z m-2164 -32 c-16 -18 -30 -35
-31 -37 -2 -2 -3 0 -3 6 0 11 48 63 58 63 3 0 -7 -15 -24 -32z m1803 -20 c-3
-8 -6 -5 -6 6 -1 11 2 17 5 13 3 -3 4 -12 1 -19z m-1517 2 c0 -5 -5 -10 -11
-10 -5 0 -7 5 -4 10 3 6 8 10 11 10 2 0 4 -4 4 -10z m-1053 -46 c-3 -3 -12 -4
-19 -1 -8 3 -5 6 6 6 11 1 17 -2 13 -5z m2803 -45 c0 -5 -7 -9 -15 -9 -9 0
-12 6 -9 15 6 15 24 11 24 -6z m22 -11 c-8 -8 -9 -4 -5 13 4 13 8 18 11 10 2
-7 -1 -18 -6 -23z m-515 -15 c-6 -40 -16 -61 -34 -67 -12 -5 -14 -1 -10 14 3
11 1 20 -5 20 -11 0 33 59 45 59 4 1 6 -11 4 -26z m435 5 c-7 -7 -12 -8 -12
-2 0 6 3 14 7 17 3 4 9 5 12 2 2 -3 -1 -11 -7 -17z m8 -53 l-8 -40 -1 36 c0
20 2 39 6 42 11 11 11 4 3 -38z m15 -40 c-9 -26 -15 -49 -11 -52 3 -3 11 7 17
23 7 17 13 24 16 16 3 -7 -3 -24 -12 -39 -14 -21 -15 -27 -4 -34 16 -9 29 7
29 36 0 16 2 17 9 6 5 -8 7 -21 3 -29 -3 -10 -1 -13 7 -8 6 4 9 15 7 24 -7 22
8 47 23 38 7 -4 11 1 11 12 0 21 27 49 37 38 3 -3 -2 -15 -12 -26 -12 -13 -14
-20 -5 -20 7 0 2 -9 -11 -21 -16 -13 -20 -22 -12 -25 7 -3 9 -13 6 -21 -6 -15
-5 -15 16 -1 13 9 35 15 50 13 14 -2 21 -2 14 1 -7 3 -9 12 -6 19 4 11 10 12
25 4 21 -11 79 -8 111 6 14 6 20 3 24 -13 3 -13 11 -19 21 -16 10 3 7 -1 -5
-7 -32 -17 -28 -26 10 -22 l32 3 -29 -14 -28 -13 33 -6 c44 -7 93 -26 86 -33
-9 -9 -57 -12 -52 -3 8 12 -14 22 -33 14 -15 -6 -14 -8 6 -16 14 -5 20 -13 16
-20 -4 -7 -3 -9 4 -5 16 10 62 -11 62 -29 0 -14 11 -19 37 -16 6 1 14 -3 18
-9 3 -5 0 -10 -7 -10 -7 -1 3 -9 22 -19 19 -11 44 -28 54 -40 12 -14 26 -19
41 -15 12 3 26 -1 33 -9 9 -11 6 -13 -21 -10 -25 3 -29 2 -16 -6 15 -9 45 -18
72 -20 5 -1 6 -5 3 -10 -3 -5 1 -11 9 -15 8 -3 15 -11 15 -18 0 -9 -3 -9 -10
2 -7 12 -12 12 -22 2 -6 -6 -23 -12 -38 -13 -24 0 -25 -1 -3 -11 21 -10 37
-40 34 -65 -1 -6 3 -14 8 -18 11 -6 51 -91 51 -107 0 -6 -7 -5 -15 2 -23 19
-18 -2 10 -40 32 -44 32 -46 -7 -18 -18 12 -39 23 -46 25 -16 2 -14 0 46 -46
24 -19 41 -36 38 -39 -3 -3 -12 0 -20 7 -10 9 -15 9 -18 0 -2 -7 -15 -5 -39 9
-23 13 -41 17 -50 12 -11 -7 -10 -10 4 -16 9 -3 15 -10 12 -14 -2 -4 4 -15 15
-25 11 -10 20 -13 20 -7 0 7 8 6 25 -1 20 -10 22 -14 12 -22 -8 -5 -12 -16
-10 -23 3 -7 -1 -10 -11 -6 -9 3 -16 2 -16 -4 0 -6 14 -13 30 -17 17 -4 38
-18 47 -31 9 -14 17 -23 20 -21 5 6 -20 52 -40 72 -26 25 -13 31 14 6 13 -12
28 -21 33 -21 6 0 -1 10 -16 21 -15 11 -25 26 -22 34 3 8 -3 16 -15 20 -12 3
-19 11 -16 16 11 16 23 10 56 -32 25 -32 30 -45 22 -58 -5 -9 -9 -37 -7 -63 2
-27 0 -48 -4 -48 -4 1 -23 23 -42 50 -19 27 -37 45 -38 40 -4 -12 -59 24 -85
54 -11 14 -15 16 -12 5 11 -30 -21 -27 -46 4 -50 64 -81 97 -93 97 -6 0 -3 -7
7 -14 9 -7 17 -17 17 -22 0 -5 9 -17 20 -27 12 -10 18 -22 15 -27 -3 -6 1 -10
10 -10 8 0 23 -12 33 -27 9 -16 24 -29 32 -31 24 -4 92 -82 86 -98 -3 -7 -2
-14 2 -14 9 0 34 -62 27 -68 -2 -3 -9 7 -14 21 -5 14 -15 28 -20 32 -6 3 -11
14 -11 23 -1 19 -38 68 -45 60 -3 -3 1 -11 10 -18 8 -7 15 -20 15 -30 0 -10 7
-23 15 -30 8 -7 15 -19 15 -27 0 -8 12 -26 27 -40 15 -16 26 -39 27 -55 1 -30
16 -40 16 -10 1 15 2 15 11 -2 8 -13 8 -20 0 -25 -14 -9 -5 -37 15 -45 8 -3
14 -12 14 -19 0 -16 61 -80 68 -72 3 2 -14 26 -37 53 -22 28 -41 56 -41 63 0
17 59 -51 60 -68 0 -7 5 -13 10 -13 14 0 13 13 -2 28 -18 18 -3 25 23 10 32
-18 59 -51 54 -65 -2 -7 6 -20 18 -30 21 -17 29 -31 55 -93 9 -22 11 -22 12
-5 1 19 2 19 20 -4 24 -28 26 -20 4 14 -17 26 -36 95 -25 93 18 -2 28 4 28 17
0 8 -4 12 -8 10 -3 -3 -13 3 -20 12 -12 15 -12 16 4 10 21 -8 22 -3 1 17 -8 9
-11 16 -6 16 11 0 75 -70 65 -71 -5 -1 -12 -1 -17 0 -5 1 -4 -5 4 -13 8 -11 9
-16 1 -16 -7 0 -2 -18 11 -45 21 -40 27 -44 58 -45 19 0 30 -4 24 -8 -8 -5 -5
-18 11 -42 12 -19 25 -33 28 -30 8 7 57 -41 57 -56 0 -8 15 -21 33 -30 l32
-16 -30 26 c-34 29 -22 35 14 7 13 -10 25 -27 26 -37 1 -11 10 -35 20 -54 12
-22 19 -58 20 -98 2 -59 1 -62 -19 -57 -20 6 -20 5 3 -14 13 -12 19 -21 13
-21 -5 0 -16 -13 -24 -30 l-14 -29 -61 62 c-59 59 -124 107 -123 90 1 -4 26
-28 56 -52 30 -24 52 -46 50 -49 -3 -2 -19 7 -35 21 -17 14 -51 33 -75 42 -25
10 -43 21 -41 25 3 5 -7 13 -23 19 -15 6 -40 20 -57 31 -16 11 -43 27 -60 36
-39 22 -103 84 -88 84 7 0 18 -9 25 -20 7 -11 18 -20 25 -20 7 0 13 -4 13 -9
0 -5 14 -14 31 -20 39 -13 39 -13 39 0 0 5 -4 8 -9 5 -11 -7 -66 34 -116 87
-39 41 -54 53 -118 92 -18 11 -64 41 -103 66 -77 51 -137 77 -236 105 -36 10
-65 21 -62 25 3 6 -18 16 -55 24 -7 2 -18 8 -24 14 -6 6 -21 11 -34 11 -14 0
-23 6 -23 15 0 8 -8 15 -17 15 -16 0 -16 2 -3 11 11 8 6 9 -20 5 -25 -4 -31
-3 -20 4 12 7 8 10 -15 10 -16 0 -48 3 -70 6 -31 4 -37 3 -25 -6 12 -9 10 -10
-10 -4 -45 12 -39 28 10 26 16 0 30 4 30 9 0 5 -9 9 -19 9 -11 0 -23 5 -26 10
-8 14 -1 13 42 -5 36 -15 36 -15 18 5 -10 11 -24 20 -32 20 -8 0 -11 5 -8 10
3 6 1 10 -4 10 -16 0 -51 33 -51 47 0 7 -7 10 -17 7 -11 -3 -9 0 4 8 l23 14
-26 27 c-14 15 -22 32 -19 37 3 6 1 10 -5 10 -7 0 -10 7 -6 15 3 10 -3 17 -19
21 -16 4 -22 11 -18 22 4 9 2 13 -4 9 -6 -4 -9 3 -8 18 4 31 -21 40 -52 19
-14 -8 -27 -13 -30 -11 -2 3 5 10 16 17 12 6 21 19 21 30 0 10 4 21 10 25 5 3
7 12 4 19 -3 8 -1 17 5 21 12 7 55 -81 46 -95 -2 -4 9 -10 25 -14 17 -3 30
-10 30 -16 0 -15 53 -88 68 -95 8 -3 21 -1 29 4 13 7 12 11 -8 25 -15 10 -18
16 -9 16 11 0 9 5 -7 18 -17 14 -33 60 -37 114 -1 3 -4 9 -8 13 -4 4 -4 13 -2
20 3 7 -4 16 -15 20 -12 3 -21 12 -21 19 0 16 -42 36 -75 36 -13 0 -31 -7 -40
-16 -20 -21 -11 -31 11 -13 15 12 17 12 12 -1 -3 -8 -13 -15 -24 -15 -10 -1
-25 -4 -32 -8 -6 -5 -12 -4 -12 0 0 18 33 54 63 70 26 14 29 18 13 21 -10 2
-22 -2 -27 -10 -7 -10 -9 -9 -9 5 0 9 -5 17 -11 17 -8 0 -8 4 0 14 9 10 9 16
1 21 -6 4 -8 16 -5 28 5 19 5 20 -5 5 -18 -29 -29 -21 -20 13 8 26 7 29 -5 19
-17 -14 -20 1 -4 17 16 16 1 93 -17 93 -9 0 -13 3 -10 8 5 8 -15 88 -33 136
-6 16 -9 31 -6 34 3 3 5 0 5 -6 0 -7 5 -12 10 -12 6 0 9 12 8 28 -4 38 29 38
65 -1 28 -31 34 -30 16 4 -5 11 -7 29 -4 39 6 19 8 19 28 5 31 -22 40 -19 35
13 -2 16 2 34 12 44 14 15 15 14 17 -15 3 -34 23 -64 23 -33 0 9 5 14 10 11
13 -8 13 11 0 35 -7 13 -6 19 5 24 8 3 15 11 15 18 0 9 -3 9 -10 -2 -15 -21
-1 36 16 69 8 14 14 32 14 40 0 8 3 11 6 8 4 -4 -1 -27 -11 -52z m-78 23 c-3
-8 -6 -5 -6 6 -1 11 2 17 5 13 3 -3 4 -12 1 -19z m-918 -24 c-9 -11 -8 -14 0
-14 7 0 9 -4 6 -10 -4 -6 -11 -5 -19 2 -11 11 -10 15 3 25 15 11 14 12 -2 13
-10 0 -15 5 -12 10 5 8 11 7 21 -1 11 -9 11 -15 3 -25z m2536 16 c3 -5 2 -10
-4 -10 -5 0 -13 5 -16 10 -3 6 -2 10 4 10 5 0 13 -4 16 -10z m-2364 -42 c-10
-28 -11 -31 -11 -64 0 -16 -5 -24 -12 -21 -15 5 -13 22 7 72 17 38 30 49 16
13z m215 -16 c-17 -16 -18 -16 -5 5 7 12 15 20 18 17 3 -2 -3 -12 -13 -22z
m-358 -63 c7 -28 12 -59 12 -70 0 -11 4 -18 9 -15 4 3 6 28 3 56 -3 36 -1 50
8 50 7 0 10 -7 6 -15 -8 -21 11 -19 23 3 10 16 11 15 12 -3 2 -31 -2 -50 -12
-53 -5 -2 -9 -13 -9 -25 1 -19 2 -20 13 -7 23 29 34 20 30 -23 -2 -23 -6 -48
-8 -55 -3 -7 0 -10 5 -7 6 3 10 1 10 -5 0 -6 5 -8 10 -5 6 3 10 11 10 16 0 6
-4 7 -10 4 -5 -3 2 14 18 39 15 25 30 46 35 46 4 0 0 -11 -9 -25 -8 -13 -12
-30 -8 -36 4 -8 3 -9 -4 -5 -8 5 -10 2 -6 -8 3 -9 16 -16 27 -16 16 0 18 -3 9
-12 -7 -7 -12 -22 -12 -35 0 -13 -6 -23 -13 -23 -9 0 -14 -15 -15 -46 -2 -29
1 -43 8 -39 7 4 9 -3 4 -22 -8 -32 -43 -75 -55 -67 -5 3 -9 0 -9 -6 0 -15 -25
-40 -40 -40 -8 0 -10 -10 -7 -26 3 -19 1 -24 -10 -19 -11 3 -13 1 -9 -10 7
-20 -13 -19 -37 2 -18 17 -19 17 -16 -2 2 -11 9 -23 14 -27 6 -4 -3 -8 -18 -8
-16 0 -26 -4 -22 -10 3 -6 -1 -7 -9 -4 -19 7 -22 -12 -3 -19 9 -4 9 -8 -3 -16
-8 -5 -18 -7 -24 -4 -5 3 -6 1 -2 -5 5 -8 -1 -12 -16 -12 l-23 -1 25 -13 24
-14 -24 -4 c-14 -1 -25 -9 -25 -17 0 -8 -20 -21 -45 -29 -25 -9 -39 -17 -31
-20 11 -4 11 -6 0 -13 -11 -7 -10 -9 5 -9 17 0 17 -1 2 -25 -12 -18 -13 -25
-4 -25 8 0 6 -5 -5 -11 -9 -5 -22 -7 -29 -3 -7 4 -8 3 -4 -4 4 -7 0 -12 -11
-13 -10 0 -13 -3 -5 -6 6 -2 12 -9 12 -15 0 -6 -8 -7 -17 -4 -10 4 -14 4 -10
0 4 -4 -5 -21 -20 -37 -17 -19 -22 -28 -12 -24 15 5 15 2 6 -23 -6 -16 -19
-31 -30 -34 -11 -3 -16 -9 -12 -16 4 -6 -1 -18 -11 -25 -11 -8 -15 -15 -11
-15 5 0 -1 -13 -12 -29 -11 -15 -18 -31 -14 -34 3 -4 0 -13 -7 -22 -10 -12 -9
-15 6 -15 13 0 10 -7 -16 -30 -18 -16 -46 -35 -62 -42 -15 -7 -26 -18 -24 -25
3 -6 -2 -17 -9 -23 -21 -18 -8 -31 23 -24 27 5 27 5 -8 -27 -19 -17 -27 -29
-17 -26 29 11 19 -10 -33 -65 -27 -29 -56 -62 -64 -73 -9 -11 -16 -15 -16 -8
0 6 4 14 10 18 5 3 7 12 4 20 -3 7 0 24 6 37 l11 23 -20 -24 c-12 -12 -19 -27
-16 -31 3 -4 -2 -13 -10 -20 -12 -10 -18 -10 -30 0 -8 7 -15 17 -15 22 0 17
30 39 42 32 8 -5 7 0 -2 11 -14 17 -13 18 3 12 11 -4 16 -3 12 3 -3 6 -22 10
-41 10 -21 0 -33 4 -29 10 3 6 16 10 28 10 20 1 20 2 5 11 -13 7 -40 5 -92 -6
-42 -8 -89 -15 -106 -15 -32 0 -40 14 -14 24 8 3 13 10 10 15 -4 5 -17 0 -31
-12 l-24 -22 30 -10 29 -10 -22 -14 c-13 -8 -34 -15 -48 -15 -28 -1 -53 -14
-46 -24 2 -4 -2 -13 -10 -20 -12 -11 -14 -8 -14 18 0 16 -4 30 -10 30 -5 0
-10 8 -11 18 0 13 -2 12 -9 -5 -15 -36 -34 -29 -26 10 18 96 18 95 -4 50 -22
-46 -35 -57 -25 -20 18 61 17 63 -10 32 l-27 -30 20 35 c67 122 65 116 54 159
-5 23 -7 41 -3 41 4 0 7 8 7 18 1 9 4 31 8 47 7 28 7 29 -8 11 -9 -11 -16 -26
-16 -34 0 -7 -14 -47 -30 -89 -17 -41 -28 -78 -25 -82 2 -4 0 -25 -6 -45 -6
-21 -7 -45 -3 -54 10 -23 11 -72 1 -72 -4 0 -14 18 -23 39 -9 24 -30 49 -53
64 -60 40 -127 137 -142 205 -7 31 -22 69 -32 84 -15 19 -18 36 -14 62 4 25 1
36 -9 40 -26 10 -16 97 23 218 20 62 43 121 51 131 9 9 16 25 17 35 1 9 5 25
10 34 4 10 1 26 -8 39 -15 21 -15 21 -26 1 -6 -12 -11 -27 -11 -36 0 -8 -5
-18 -12 -22 -16 -10 -2 83 17 113 9 13 11 23 6 23 -14 0 6 53 28 76 11 12 15
29 13 47 -3 21 3 36 24 58 28 30 118 82 126 73 3 -2 4 -26 1 -51 -4 -51 0 -51
26 -3 9 18 21 31 26 30 11 -2 11 -5 -1 -34 -5 -14 -4 -17 4 -12 7 4 12 3 12
-2 0 -6 -8 -13 -17 -16 -14 -6 -15 -9 -4 -15 9 -6 12 -20 9 -40 -3 -21 0 -31
9 -31 7 0 13 -6 13 -14 0 -8 3 -16 8 -19 4 -2 1 -2 -6 0 -8 2 -12 -4 -10 -15
2 -9 10 -16 16 -15 7 2 12 -7 12 -20 1 -20 2 -20 11 -4 5 9 16 17 23 17 8 0
19 7 26 15 10 12 10 15 0 15 -19 0 -3 13 20 17 17 2 20 -1 15 -25 -12 -58 -13
-117 -3 -123 7 -4 6 -14 -3 -30 -7 -13 -12 -27 -11 -31 1 -4 -3 -19 -8 -33 -7
-17 -6 -25 1 -25 8 0 7 -5 -1 -15 -11 -13 -10 -14 4 -9 9 3 16 3 16 0 0 -16
-32 -66 -41 -66 -8 0 -7 5 1 15 11 13 10 14 -4 9 -9 -3 -19 -17 -22 -30 -3
-13 -11 -24 -18 -24 -6 0 -3 -5 7 -11 9 -5 23 -7 30 -3 6 4 4 -2 -5 -13 -20
-21 -24 -38 -8 -28 7 4 7 -3 0 -20 -6 -15 -10 -37 -10 -50 0 -13 -12 -37 -26
-54 -16 -20 -20 -29 -10 -25 19 7 19 4 6 -30 -6 -17 -6 -26 0 -26 6 0 13 14
17 30 4 20 13 32 28 36 16 4 27 19 38 52 30 86 43 122 51 129 4 4 4 0 0 -10
-9 -25 9 -21 26 6 20 32 22 50 3 43 -13 -5 -14 -4 -4 8 9 11 9 15 -1 19 -7 2
-9 8 -5 13 5 5 14 1 22 -9 9 -13 20 -17 34 -12 12 3 21 9 21 13 0 4 10 18 21
32 18 23 19 23 9 3 -6 -13 -7 -23 -2 -23 10 0 45 47 40 53 -2 2 5 15 15 30 10
15 13 27 7 27 -6 0 -8 5 -5 10 4 6 11 7 17 4 7 -5 9 -2 5 8 -3 9 0 21 6 27 15
15 -6 14 -22 -1 -11 -10 -13 -10 -7 0 4 7 2 12 -5 12 -17 0 -4 11 17 14 9 2
19 11 20 20 1 10 13 29 25 42 17 18 19 24 8 24 -8 0 -21 -6 -28 -12 -8 -7 -6
0 4 15 10 15 20 26 22 23 2 -2 16 8 30 21 19 20 22 28 11 34 -7 5 -21 6 -32 3
-11 -4 -16 -2 -12 4 3 6 -4 12 -16 14 -22 3 -21 5 8 20 17 9 41 14 53 11 17
-4 20 -2 14 13 -5 13 -3 16 10 11 11 -4 14 -2 10 9 -3 7 -9 14 -14 14 -5 0 -9
5 -9 11 0 7 7 8 18 4 31 -12 37 -10 36 13 -1 16 3 21 12 18 7 -3 16 -1 20 5 3
6 10 4 17 -5 11 -14 23 -15 97 -5 47 6 97 11 113 10 15 -1 27 3 27 9 0 5 -5
10 -11 10 -5 0 -8 4 -4 9 3 5 -3 12 -12 14 -14 4 -13 5 4 6 12 0 26 -5 30 -13
11 -18 53 -40 53 -27 0 5 -9 13 -20 16 -29 9 -24 24 7 20 34 -3 55 4 47 17 -3
5 2 8 12 6 13 -2 19 3 18 14 -2 22 35 20 53 -2 10 -12 12 -12 13 -1 0 11 3 11
16 0 15 -12 16 -11 10 11 -4 14 -4 21 1 15 12 -15 53 -36 53 -27 0 4 -9 14
-20 22 -11 8 -20 26 -20 40 l1 25 15 -25 15 -25 -4 27 c-7 47 19 20 31 -33z
m1980 7 c-1 -6 8 -30 20 -53 12 -23 22 -52 22 -65 0 -21 -1 -21 -17 -5 -15 15
-16 19 -4 26 11 7 9 10 -10 13 -13 2 -23 9 -21 17 1 7 -3 19 -9 27 -6 8 -8 14
-5 14 4 0 0 10 -8 22 -9 12 -16 31 -16 42 0 18 2 18 25 -4 14 -13 24 -28 23
-34z m-1938 40 c0 -3 -4 -8 -10 -11 -5 -3 -10 -1 -10 4 0 6 5 11 10 11 6 0 10
-2 10 -4z m310 -36 c-6 -11 -13 -20 -16 -20 -2 0 0 9 6 20 6 11 13 20 16 20 2
0 0 -9 -6 -20z m-151 -46 c-6 -16 -13 -24 -16 -17 -5 13 16 58 23 50 3 -2 -1
-17 -7 -33z m1261 32 c0 -11 -19 -15 -25 -6 -3 5 1 10 9 10 9 0 16 -2 16 -4z
m-40 -16 c12 -8 11 -10 -7 -10 -13 0 -23 5 -23 10 0 13 11 13 30 0z m-1636
-26 c5 -14 4 -15 -9 -4 -17 14 -19 20 -6 20 5 0 12 -7 15 -16z m-858 -32 c-18
-16 -18 -16 -6 6 6 13 14 21 18 18 3 -4 -2 -14 -12 -24z m1256 -29 c-5 -10 -7
-24 -5 -30 3 -7 0 -13 -7 -13 -6 0 -8 5 -5 10 3 6 1 10 -5 10 -8 0 -8 6 0 20
6 11 15 20 21 20 6 0 6 -6 1 -17z m-639 0 c-7 -2 -21 -2 -30 0 -10 3 -4 5 12
5 17 0 24 -2 18 -5z m659 -15 c-7 -7 -12 -8 -12 -2 0 6 3 14 7 17 3 4 9 5 12
2 2 -3 -1 -11 -7 -17z m1678 -98 c6 -11 8 -20 6 -20 -3 0 -10 9 -16 20 -6 11
-8 20 -6 20 3 0 10 -9 16 -20z m213 -244 c31 -40 34 -51 10 -37 -20 10 -59 71
-46 71 4 0 20 -16 36 -34z m-1301 -18 c-7 -7 -12 -8 -12 -2 0 6 3 14 7 17 3 4
9 5 12 2 2 -3 -1 -11 -7 -17z m-5 -50 c-3 -7 -5 -2 -5 12 0 14 2 19 5 13 2 -7
2 -19 0 -25z m1319 7 c4 -8 10 -12 15 -9 5 3 6 -2 3 -10 -3 -9 -1 -16 6 -16 7
0 9 -8 5 -19 -3 -10 5 -43 18 -72 30 -67 38 -89 32 -89 -3 0 -12 18 -21 40 -9
22 -20 37 -25 34 -5 -3 -9 4 -9 14 0 11 -7 36 -15 56 -8 20 -12 36 -9 36 3 0
-1 11 -10 25 -9 14 -12 25 -6 25 6 0 13 -7 16 -15z m21 -160 c11 -8 23 -24 26
-36 4 -16 -3 -11 -29 17 -37 42 -51 75 -38 96 6 9 11 0 15 -25 3 -21 15 -44
26 -52z m-1333 50 c-7 -16 -24 -21 -24 -6 0 8 7 13 27 20 1 1 0 -6 -3 -14z
m-304 -10 c0 -8 -4 -15 -10 -15 -5 0 -7 7 -4 15 4 8 8 15 10 15 2 0 4 -7 4
-15z m-37 -35 c-3 -11 -9 -20 -13 -20 -5 0 -6 9 -3 20 3 11 9 20 13 20 5 0 6
-9 3 -20z m1472 -88 c-3 -7 1 -23 7 -35 7 -12 11 -25 10 -29 -1 -3 5 -12 13
-18 24 -20 17 -30 -11 -20 -25 10 -25 9 -19 -21 6 -27 5 -31 -10 -25 -11 4 -5
-9 16 -35 27 -34 29 -40 11 -30 -27 14 -27 13 0 -38 12 -23 28 -41 35 -41 8 0
16 -7 19 -15 4 -8 12 -15 19 -15 6 0 20 -9 30 -20 10 -11 13 -20 8 -20 -6 0
-16 7 -23 15 -7 8 -18 15 -24 15 -11 0 -35 17 -104 75 -19 17 -24 31 -25 75
-2 43 1 55 13 55 12 0 16 16 18 73 1 40 -3 83 -9 95 -9 19 -8 19 10 -3 11 -14
18 -31 16 -38z m-1361 -17 c-9 -14 -19 -24 -21 -21 -7 7 16 46 28 46 5 0 2
-11 -7 -25z m1114 -33 c10 -20 32 -58 49 -84 19 -26 28 -49 23 -51 -6 -3 -5
-4 2 -3 7 2 22 -11 33 -28 37 -56 63 -106 56 -106 -14 0 -38 34 -45 63 -3 15
-11 27 -17 27 -6 0 -7 -4 -4 -10 3 -5 3 -10 -2 -10 -4 0 -15 17 -24 38 -39 87
-64 133 -108 192 -24 32 -24 32 -2 20 13 -6 30 -28 39 -48z m476 42 c3 -8 2
-12 -4 -9 -6 3 -10 10 -10 16 0 14 7 11 14 -7z m-1434 2 c0 -2 -7 -7 -16 -10
-8 -3 -12 -2 -9 4 6 10 25 14 25 6z m-1710 -40 c0 -3 -4 -8 -10 -11 -5 -3 -10
-1 -10 4 0 6 5 11 10 11 6 0 10 -2 10 -4z m2734 -75 c-7 -8 -32 23 -39 49 -6
21 -3 19 18 -10 14 -19 23 -37 21 -39z m381 -14 c13 -26 22 -47 19 -47 -15 0
-43 39 -49 70 -9 43 -3 38 30 -23z m-345 27 c0 -8 -4 -12 -10 -9 -5 3 -10 10
-10 16 0 5 5 9 10 9 6 0 10 -7 10 -16z m-1220 -34 c0 -5 -2 -10 -4 -10 -3 0
-8 5 -11 10 -3 6 -1 10 4 10 6 0 11 -4 11 -10z m1240 -27 c16 -20 18 -28 8
-34 -15 -9 -20 -5 -36 34 -15 35 0 35 28 0z m-1160 -43 c0 -5 -5 -10 -11 -10
-5 0 -7 5 -4 10 3 6 8 10 11 10 2 0 4 -4 4 -10z m1493 -32 c13 -11 16 -21 10
-32 -7 -13 -12 -9 -27 19 -11 19 -23 35 -28 35 -4 0 -8 5 -8 11 0 12 13 4 53
-33z m-1907 8 c0 -14 -5 -21 -9 -17 -4 4 -5 15 -1 24 9 24 12 21 10 -7z m599
-6 c3 -6 -1 -7 -9 -4 -18 7 -21 14 -7 14 6 0 13 -4 16 -10z m75 -36 c0 -2 -26
-4 -57 -3 -39 1 -50 3 -34 8 24 6 91 3 91 -5z m1296 -61 c-4 -4 -14 1 -22 11
-22 31 -17 43 8 19 12 -13 18 -26 14 -30z m-1926 4 c0 -5 -4 -5 -10 -2 -5 3
-10 14 -10 23 0 15 2 15 10 2 5 -8 10 -19 10 -23z m-3 -49 c-3 -8 -6 -5 -6 6
-1 11 2 17 5 13 3 -3 4 -12 1 -19z m-1334 -3 c-3 -9 -8 -14 -10 -11 -3 3 -2 9
2 15 9 16 15 13 8 -4z m-1180 -12 c24 -13 28 -18 15 -21 -20 -4 -58 14 -58 28
0 14 6 13 43 -7z m1857 -7 c0 -2 -7 -9 -15 -16 -12 -10 -15 -10 -15 4 0 9 7
16 15 16 8 0 15 -2 15 -4z m667 -18 c-3 -8 -6 -5 -6 6 -1 11 2 17 5 13 3 -3 4
-12 1 -19z m433 -29 c-44 -37 -68 -50 -54 -28 3 6 -5 3 -20 -6 -14 -10 -26
-14 -26 -10 0 17 129 99 140 88 3 -2 -15 -22 -40 -44z m1515 0 c11 -17 -1 -21
-15 -4 -8 9 -8 15 -2 15 6 0 14 -5 17 -11z m-4295 -14 c14 -16 10 -18 -14 -9
-9 3 -16 10 -16 15 0 14 16 11 30 -6z m2297 -27 c-3 -8 -6 -5 -6 6 -1 11 2 17
5 13 3 -3 4 -12 1 -19z m1886 -2 c23 -18 25 -23 10 -23 -19 0 -53 24 -53 39 0
13 13 9 43 -16z m-693 -31 c13 -14 20 -25 16 -25 -4 0 -19 11 -34 25 -15 14
-22 25 -16 25 6 0 21 -11 34 -25z m50 15 c13 -8 13 -10 -2 -10 -9 0 -20 5 -23
10 -8 13 5 13 25 0z m860 -11 c0 -6 -4 -7 -10 -4 -5 3 -10 11 -10 16 0 6 5 7
10 4 6 -3 10 -11 10 -16z m-91 -64 c40 -42 75 -49 37 -8 -14 15 -23 29 -21 31
9 10 31 -7 48 -38 19 -31 19 -31 -2 -37 -19 -5 -19 -6 -4 -30 l16 -24 -33 18
c-18 10 -38 28 -44 38 -6 11 -14 22 -17 25 -7 6 -29 47 -29 54 0 14 17 3 49
-29z m-2706 2 c4 -10 -2 -13 -21 -9 -24 5 -25 6 -7 13 11 4 21 8 21 8 1 1 4
-5 7 -12z m1042 3 c-3 -5 -12 -10 -19 -10 -7 0 -23 -11 -36 -25 -13 -14 -31
-25 -39 -24 -12 0 -10 3 4 9 11 4 31 20 44 34 23 25 59 37 46 16z m994 -31
c-15 -9 -14 -11 21 -26 18 -8 20 -12 8 -12 -21 -1 -90 57 -83 69 3 5 19 1 36
-7 23 -11 28 -18 18 -24z m-609 15 l25 -15 -30 6 c-16 4 -34 11 -39 16 -16 15
16 10 44 -7z m-1480 -23 c0 -4 -12 -13 -27 -20 l-28 -11 22 19 c12 10 19 22
15 26 -4 5 -1 5 6 1 6 -4 12 -11 12 -15z m-590 -21 c0 -13 -6 -20 -17 -19 -11
0 -13 3 -5 6 6 2 12 11 12 19 0 8 2 14 5 14 3 0 5 -9 5 -20z m50 10 c0 -5 -5
-10 -11 -10 -5 0 -7 5 -4 10 3 6 8 10 11 10 2 0 4 -4 4 -10z m863 -17 c-7 -2
-19 -2 -25 0 -7 3 -2 5 12 5 14 0 19 -2 13 -5z m54 1 c-3 -3 -12 -4 -19 -1 -8
3 -5 6 6 6 11 1 17 -2 13 -5z m-620 -10 c-3 -3 -12 -4 -19 -1 -8 3 -5 6 6 6
11 1 17 -2 13 -5z m3098 -14 c3 -5 1 -10 -4 -10 -6 0 -11 5 -11 10 0 6 2 10 4
10 3 0 8 -4 11 -10z m-1884 -23 c-10 -9 -11 -8 -5 6 3 10 9 15 12 12 3 -3 0
-11 -7 -18z m-628 4 c9 -1 17 -5 17 -9 0 -5 -14 -6 -31 -4 -22 3 -30 1 -25 -7
10 -16 -4 -13 -44 9 l-35 20 50 -4 c28 -3 58 -5 68 -5z m-918 -42 c-5 -14 -1
-19 11 -19 13 0 11 -5 -10 -25 -15 -14 -30 -25 -34 -25 -11 0 -38 20 -28 20 6
0 2 6 -8 13 -21 16 -14 38 22 59 31 19 56 7 47 -23z m45 21 c0 -21 -15 -27
-25 -10 -7 12 2 30 16 30 5 0 9 -9 9 -20z m2668 -42 c14 -13 22 -17 18 -10 -8
14 -5 15 18 6 13 -5 12 -9 -6 -23 -19 -16 -19 -18 -4 -24 10 -4 15 -3 11 3 -3
6 1 10 10 10 11 0 15 -5 12 -14 -3 -8 3 -22 14 -32 10 -9 19 -14 19 -11 0 3
16 -1 35 -9 19 -8 37 -14 40 -14 3 1 13 -4 23 -9 15 -9 14 -10 -5 -11 -13 0
-23 -4 -23 -10 0 -5 7 -10 15 -10 8 0 23 -4 33 -9 9 -5 31 -14 47 -21 19 -8
25 -14 16 -18 -11 -4 -11 -6 0 -13 11 -7 10 -9 -3 -9 -20 0 -25 -16 -5 -18 41
-3 57 -7 57 -14 0 -4 -12 -8 -27 -8 -22 0 -25 -2 -13 -10 13 -9 13 -11 0 -20
-8 -5 -10 -10 -4 -10 5 0 15 5 20 10 7 7 24 6 53 -5 24 -8 52 -15 62 -15 11 0
18 -5 17 -11 -2 -6 3 -14 11 -17 8 -3 11 0 7 7 -11 18 9 13 26 -6 29 -34 32
-46 10 -34 -11 6 -32 11 -47 11 -14 0 -28 7 -31 15 -4 8 -11 15 -17 15 -6 0 0
-11 13 -25 13 -14 35 -25 50 -25 14 0 32 -6 38 -12 17 -17 36 10 20 29 -20 25
0 13 36 -22 l37 -35 -38 0 c-27 0 -34 -3 -23 -9 8 -6 18 -7 22 -4 5 2 15 -1
23 -7 8 -6 18 -9 23 -6 6 3 16 -2 23 -11 12 -15 12 -16 -6 -10 -18 6 -18 5 3
-12 23 -20 29 -41 12 -41 -5 0 -10 5 -10 10 0 6 -7 10 -15 10 -8 0 -15 6 -15
14 0 14 -20 26 -53 32 -15 3 -16 1 -6 -17 8 -15 8 -19 0 -15 -27 17 -7 -12 24
-34 39 -28 45 -41 15 -33 -10 3 -18 10 -17 16 1 6 -8 13 -20 15 -27 4 -30 -6
-6 -23 15 -11 13 -12 -16 -9 -38 4 -75 36 -91 79 -13 35 -8 40 22 24 21 -11
22 -11 9 4 -7 10 -19 17 -25 17 -7 0 -30 18 -51 40 -21 22 -44 40 -51 40 -6 0
-22 10 -36 23 -14 13 -46 36 -72 51 -26 15 -44 31 -41 36 3 4 -7 12 -23 18
-15 5 -38 20 -52 32 -14 12 -35 30 -48 40 -12 10 -29 38 -36 62 -8 23 -21 60
-30 81 -19 43 -13 46 22 15z m-2486 -35 c-8 -3 -5 -10 10 -23 13 -10 20 -22
15 -26 -4 -4 -13 1 -20 10 -12 16 -17 17 -36 6 -18 -9 -26 -9 -35 1 -8 9 -8
10 0 6 7 -4 23 2 35 13 13 11 29 19 34 19 6 0 4 -3 -3 -6z m-317 -23 c3 -11
14 -24 24 -30 13 -6 17 -17 14 -35 -4 -17 0 -27 11 -31 9 -3 16 -15 16 -25 0
-10 5 -19 11 -19 8 0 10 -15 5 -47 -9 -70 4 -203 20 -203 8 0 14 -4 14 -10 0
-5 -4 -10 -8 -10 -5 0 -8 -15 -7 -32 1 -18 -6 -44 -15 -58 -10 -14 -25 -54
-34 -90 -18 -74 -36 -251 -24 -244 4 3 10 -8 14 -23 14 -64 33 -139 39 -155 5
-12 2 -18 -6 -19 -8 0 -5 -4 6 -9 19 -8 19 -8 1 -16 -13 -5 -23 -2 -33 12 -9
12 -10 20 -3 22 5 2 8 8 4 13 -3 5 -12 2 -20 -6 -20 -19 -29 -19 -49 1 -20 20
-15 49 8 48 10 -1 17 5 17 16 0 14 -8 18 -39 16 -37 -1 -40 1 -52 37 -11 33
-10 39 6 50 9 8 23 30 30 51 11 30 11 35 0 26 -10 -9 -17 0 -30 40 -9 27 -21
50 -26 50 -5 0 -8 -6 -7 -12 2 -8 -6 -12 -19 -10 -23 3 -33 -21 -13 -33 5 -3
7 -19 4 -34 -5 -24 -3 -29 12 -28 11 1 22 7 26 12 4 6 8 2 8 -7 0 -13 -8 -18
-30 -18 -19 0 -30 -5 -30 -14 0 -28 -22 -28 -52 0 -31 30 -34 23 -13 -28 4
-11 1 -18 -12 -22 -22 -7 -58 -70 -49 -85 10 -16 -11 -51 -62 -101 -53 -53
-142 -91 -128 -55 3 9 0 15 -8 15 -18 0 -11 51 15 104 10 22 19 46 19 54 0 8
12 28 26 45 15 18 22 33 15 35 -6 2 -11 10 -11 18 0 19 38 86 59 104 21 18 34
60 18 57 -23 -4 -17 35 10 68 15 19 37 46 48 60 34 45 46 55 65 55 10 0 20 9
23 20 8 32 44 26 52 -9 4 -18 11 -28 19 -25 14 5 39 91 30 105 -3 5 -1 16 6
23 6 8 8 26 4 41 -5 20 -1 33 17 53 21 23 21 24 2 9 -12 -10 -27 -20 -35 -21
-38 -7 -57 -18 -51 -32 7 -19 -51 -23 -70 -4 -14 13 2 50 19 43 7 -3 14 -1 14
4 0 5 13 23 30 39 16 16 30 38 30 48 0 11 -3 17 -6 13 -3 -3 -12 -1 -19 6 -13
13 -9 42 11 71 7 10 10 32 7 51 -5 32 -3 34 28 40 19 3 45 15 59 25 32 25 37
25 45 0z m1147 -18 c6 -6 8 -15 3 -19 -4 -5 -10 -2 -12 5 -3 6 -13 12 -24 12
-10 0 -19 4 -19 10 0 13 37 7 52 -8z m2415 -54 c-3 -8 -6 -5 -6 6 -1 11 2 17
5 13 3 -3 4 -12 1 -19z m-3262 3 c-15 -13 -65 -23 -65 -12 0 10 22 18 55 20
11 1 15 -3 10 -8z m2639 -257 c13 -5 14 -9 5 -20 -9 -11 -15 -11 -25 -3 -8 6
-11 15 -8 20 6 11 8 11 28 3z m-3134 -44 c0 -5 -4 -10 -10 -10 -5 0 -10 5 -10
10 0 6 5 10 10 10 6 0 10 -4 10 -10z m-34 -27 c-10 -10 -19 5 -10 18 6 11 8
11 12 0 2 -7 1 -15 -2 -18z m3736 -70 c10 -9 18 -20 18 -25 0 -13 -37 9 -44
27 -7 20 3 19 26 -2z m-3369 -68 c-3 -9 -8 -14 -10 -11 -3 3 -2 9 2 15 9 16
15 13 8 -4z m3184 -115 c-2 -24 -17 -15 -17 11 0 11 4 18 9 14 6 -3 9 -14 8
-25z m-3140 -157 c-3 -10 -5 -4 -5 12 0 17 2 24 5 18 2 -7 2 -21 0 -30z m113
-4 c0 -5 -4 -9 -10 -9 -5 0 -10 7 -10 16 0 8 5 12 10 9 6 -3 10 -10 10 -16z
m-100 -35 c0 -8 -4 -12 -10 -9 -5 3 -10 10 -10 16 0 5 5 9 10 9 6 0 10 -7 10
-16z m97 -6 c-3 -8 -6 -5 -6 6 -1 11 2 17 5 13 3 -3 4 -12 1 -19z m-457 -28
c0 -5 -5 -10 -11 -10 -5 0 -7 5 -4 10 3 6 8 10 11 10 2 0 4 -4 4 -10z m357
-48 l1 -47 -8 40 c-7 34 -5 55 3 55 1 0 3 -21 4 -48z m30 -4 c-3 -8 -6 -5 -6
6 -1 11 2 17 5 13 3 -3 4 -12 1 -19z m-321 -30 c4 -83 24 -139 57 -161 22 -15
44 -63 33 -74 -9 -9 -46 18 -46 35 0 21 -53 46 -80 37 -23 -7 -23 -9 -10 34 8
27 6 38 -9 57 -10 13 -21 21 -23 18 -3 -2 -5 9 -4 26 1 22 6 30 21 32 40 3 44
3 51 11 4 4 8 7 8 7 1 0 2 -10 2 -22z m354 -48 c0 -29 -17 -33 -22 -5 -3 13
-3 27 0 29 9 10 22 -5 22 -24z m80 -81 c0 -6 -4 -7 -10 -4 -5 3 -10 11 -10 16
0 6 5 7 10 4 6 -3 10 -11 10 -16z m-880 -198 c10 -19 5 -50 -9 -52 -44 -6 -50
-4 -55 15 -4 14 1 27 15 39 27 22 36 22 49 -2z m-30 -170 c0 -40 -11 -51 -53
-51 l-41 0 34 35 c38 39 60 45 60 16z"/>
<path d="M1315 3858 c34 -27 88 -33 73 -8 -5 8 -19 15 -31 15 -12 1 -33 4 -47
9 -24 7 -23 6 5 -16z"/>
<path d="M1596 3871 c-4 -7 -5 -15 -2 -18 9 -9 19 4 14 18 -4 11 -6 11 -12 0z"/>
<path d="M1630 3839 c0 -5 5 -7 10 -4 6 3 10 8 10 11 0 2 -4 4 -10 4 -5 0 -10
-5 -10 -11z"/>
<path d="M928 3683 c7 -3 16 -2 19 1 4 3 -2 6 -13 5 -11 0 -14 -3 -6 -6z"/>
<path d="M1417 3626 c-29 -27 -34 -35 -22 -40 9 -3 14 -2 11 3 -4 5 11 23 32
40 20 17 32 30 26 31 -5 0 -27 -15 -47 -34z"/>
<path d="M1371 3561 c-8 -5 -9 -11 -3 -15 13 -8 42 3 42 15 0 11 -21 11 -39 0z"/>
<path d="M953 3514 c-15 -16 -16 -24 -4 -24 8 0 24 30 19 35 -2 2 -9 -3 -15
-11z"/>
<path d="M3695 3210 c-3 -5 -2 -10 4 -10 5 0 13 5 16 10 3 6 2 10 -4 10 -5 0
-13 -4 -16 -10z"/>
<path d="M3685 3130 c-3 -5 -2 -10 4 -10 5 0 13 5 16 10 3 6 2 10 -4 10 -5 0
-13 -4 -16 -10z"/>
<path d="M3630 2870 c0 -5 5 -10 10 -10 6 0 10 5 10 10 0 6 -4 10 -10 10 -5 0
-10 -4 -10 -10z"/>
<path d="M3577 2719 c18 -19 36 -28 43 -24 7 5 0 15 -24 31 -48 33 -57 30 -19
-7z"/>
<path d="M3950 2581 c0 -5 5 -13 10 -16 6 -3 10 -2 10 4 0 5 -4 13 -10 16 -5
3 -10 2 -10 -4z"/>
<path d="M4015 2550 c3 -5 8 -10 11 -10 2 0 4 5 4 10 0 6 -5 10 -11 10 -5 0
-7 -4 -4 -10z"/>
<path d="M3915 2531 c1 -22 85 -118 85 -98 0 7 -9 18 -20 25 -11 7 -20 20 -20
30 0 10 -11 28 -23 40 -23 21 -24 21 -22 3z"/>
<path d="M4051 2526 c13 -28 45 -47 35 -20 -3 8 -6 17 -6 19 0 3 -9 9 -20 15
-18 10 -19 9 -9 -14z"/>
<path d="M3871 2491 c13 -11 26 -17 29 -14 6 6 -30 33 -43 33 -5 0 1 -9 14
-19z"/>
<path d="M4115 2480 c3 -5 11 -10 16 -10 6 0 7 5 4 10 -3 6 -11 10 -16 10 -6
0 -7 -4 -4 -10z"/>
<path d="M3926 2442 c12 -10 25 -28 28 -40 4 -12 12 -22 17 -22 5 0 9 -5 9
-11 0 -6 7 -17 15 -25 8 -8 11 -22 8 -31 -4 -11 -3 -14 5 -9 8 5 10 1 5 -10
-4 -11 -3 -15 5 -10 6 4 16 -3 22 -16 9 -19 9 -21 -2 -8 -7 9 -21 14 -31 12
-11 -2 -17 1 -15 10 4 20 -33 76 -54 82 -18 4 -18 3 -3 -21 9 -13 14 -27 11
-30 -2 -3 4 -14 14 -26 13 -13 18 -28 14 -43 -3 -12 0 -25 6 -29 9 -5 10 -1 5
15 l-7 22 31 -23 c34 -25 39 -31 16 -23 -11 5 -14 2 -9 -12 4 -11 13 -26 21
-35 7 -9 11 -25 8 -35 -4 -12 -1 -10 10 6 14 22 15 22 10 4 -6 -24 13 -76 26
-68 4 2 13 -4 19 -13 8 -14 9 -6 5 32 -5 38 -4 46 5 35 8 -11 9 -1 6 41 -6 69
-22 113 -38 103 -6 -4 -8 -3 -5 3 4 6 0 16 -8 23 -8 7 -15 18 -15 24 0 19
-120 146 -138 146 -14 -1 -14 -4 4 -18z m167 -226 c3 -8 0 -17 -7 -19 -10 -4
-12 1 -9 14 6 23 9 24 16 5z m21 -65 c-2 -2 -10 4 -18 12 -12 11 -13 16 -3 20
11 4 29 -23 21 -32z"/>
<path d="M3798 2406 c24 -26 41 -50 38 -53 -2 -3 8 -16 24 -30 30 -25 75 -111
64 -122 -3 -3 -20 12 -37 34 -49 60 -131 141 -117 114 7 -13 19 -32 28 -41 31
-36 -5 -17 -47 25 l-44 42 28 -45 c16 -25 39 -56 51 -70 30 -34 52 -82 46 -99
-3 -8 1 -12 9 -9 8 3 13 14 11 24 -2 14 3 12 22 -11 14 -16 25 -26 26 -22 0 4
19 -12 43 -35 23 -24 52 -51 63 -60 20 -18 20 -17 16 12 -2 16 -10 35 -18 41
-17 14 -18 40 -2 36 15 -3 12 53 -4 68 -7 7 -9 3 -5 -12 8 -37 -1 -27 -23 25
-38 86 -54 111 -73 116 -10 2 -17 8 -14 13 6 10 -19 34 -27 26 -3 -4 -6 0 -6
9 0 8 -9 23 -20 33 -11 10 -20 15 -20 10 0 -4 -12 1 -27 11 -21 13 -18 6 15
-30z m47 -166 c3 -5 2 -10 -4 -10 -5 0 -13 5 -16 10 -3 6 -2 10 4 10 5 0 13
-4 16 -10z m55 -84 c0 -6 -7 -2 -15 8 -8 11 -15 25 -15 30 0 6 7 2 15 -8 8
-11 15 -25 15 -30z m44 8 c6 -15 4 -15 -11 -3 -10 7 -20 15 -22 16 -2 2 3 3
11 3 9 0 19 -7 22 -16z"/>
<path d="M4040 2412 c0 -12 19 -26 26 -19 2 2 -2 10 -11 17 -9 8 -15 8 -15 2z"/>
<path d="M4010 2402 c0 -5 10 -17 21 -28 22 -19 22 -19 10 3 -12 24 -31 39
-31 25z"/>
<path d="M3515 2321 c-6 -11 9 -23 19 -14 9 9 7 23 -3 23 -6 0 -12 -4 -16 -9z"/>
<path d="M3519 2275 l-24 -13 30 -12 c23 -9 26 -13 15 -20 -9 -6 -10 -10 -3
-10 6 0 15 5 19 11 4 8 9 7 15 -2 4 -7 10 -11 12 -9 2 3 -6 19 -18 36 -20 29
-23 31 -46 19z"/>
<path d="M3590 2276 c0 -2 8 -10 18 -17 15 -13 16 -12 3 4 -13 16 -21 21 -21
13z"/>
<path d="M3627 2233 c-12 -12 -7 -19 12 -19 15 0 17 3 9 13 -12 15 -13 15 -21
6z"/>
<path d="M3585 2185 c31 -26 48 -26 22 -1 -8 8 -17 12 -21 9 -3 -4 -6 -1 -6 5
0 7 -6 12 -12 12 -7 -1 0 -12 17 -25z"/>
<path d="M3665 2190 c3 -5 8 -10 11 -10 2 0 4 5 4 10 0 6 -5 10 -11 10 -5 0
-7 -4 -4 -10z"/>
<path d="M3800 2196 c0 -2 8 -10 18 -17 15 -13 16 -12 3 4 -13 16 -21 21 -21
13z"/>
<path d="M4160 2113 c0 -14 19 -38 25 -32 8 8 -5 39 -16 39 -5 0 -9 -3 -9 -7z"/>
<path d="M4140 2059 c0 -13 9 -30 19 -36 18 -11 18 -11 3 20 -20 43 -22 44
-22 16z"/>
<path d="M4196 2055 c4 -8 11 -15 16 -15 6 0 5 6 -2 15 -7 8 -14 15 -16 15 -2
0 -1 -7 2 -15z"/>
<path d="M4085 2040 c3 -5 8 -10 11 -10 2 0 4 5 4 10 0 6 -5 10 -11 10 -5 0
-7 -4 -4 -10z"/>
<path d="M4270 1816 c0 -2 7 -7 16 -10 8 -3 12 -2 9 4 -6 10 -25 14 -25 6z"/>
<path d="M4780 1590 c0 -5 5 -10 11 -10 5 0 7 5 4 10 -3 6 -8 10 -11 10 -2 0
-4 -4 -4 -10z"/>
<path d="M4530 1580 c35 -24 54 -31 30 -11 -14 11 -29 21 -35 21 -5 0 -3 -5 5
-10z"/>
<path d="M2355 3120 c3 -5 8 -10 11 -10 2 0 4 5 4 10 0 6 -5 10 -11 10 -5 0
-7 -4 -4 -10z"/>
<path d="M2421 3104 c0 -11 3 -14 6 -6 3 7 2 16 -1 19 -3 4 -6 -2 -5 -13z"/>
<path d="M2451 3064 c0 -11 3 -14 6 -6 3 7 2 16 -1 19 -3 4 -6 -2 -5 -13z"/>
<path d="M1270 3006 c-24 -9 -36 -20 -38 -35 -3 -19 -1 -21 15 -12 29 16 79
60 68 60 -5 0 -26 -6 -45 -13z"/>
<path d="M1162 2865 c-6 -14 -8 -25 -4 -25 12 0 32 23 32 37 0 22 -16 15 -28
-12z"/>
<path d="M2280 2850 c0 -5 5 -10 10 -10 6 0 10 5 10 10 0 6 -4 10 -10 10 -5 0
-10 -4 -10 -10z"/>
<path d="M2130 2753 c0 -5 10 -18 23 -29 l22 -19 -20 25 c-11 14 -21 27 -22
29 -2 2 -3 0 -3 -6z"/>
<path d="M1950 2705 c-23 -13 -23 -14 -4 -15 11 0 29 7 40 15 26 19 -1 20 -36
0z"/>
<path d="M2360 2695 l-45 -25 34 2 c22 2 39 11 49 26 18 27 18 27 -38 -3z"/>
<path d="M1920 2650 c0 -5 7 -7 15 -4 8 4 15 8 15 10 0 2 -7 4 -15 4 -8 0 -15
-4 -15 -10z"/>
<path d="M1929 2618 c-38 -32 -31 -39 8 -8 35 27 52 25 22 -2 -13 -13 -32 -35
-42 -50 -17 -27 -17 -28 3 -28 19 0 18 -3 -10 -42 -30 -41 -39 -65 -20 -53 6
4 18 1 26 -6 12 -10 17 -8 28 7 8 10 18 16 22 12 4 -4 1 -16 -7 -25 -13 -16
-12 -17 4 -4 10 8 16 20 13 27 -3 7 3 18 12 25 14 11 15 11 5 0 -16 -19 -5
-45 13 -30 8 6 12 15 9 19 -3 4 2 11 11 14 12 4 15 2 10 -9 -3 -8 -9 -21 -12
-29 -3 -7 18 7 45 32 55 50 60 69 8 33 l-32 -23 33 31 c18 17 29 31 26 31 -4
0 -1 6 5 14 9 11 8 18 -4 30 -9 9 -12 16 -6 16 6 0 11 4 11 9 0 5 -11 8 -24 7
-17 -2 -23 1 -19 10 6 15 0 16 -63 19 -32 1 -49 -5 -75 -27z m161 -48 c-8 -5
-19 -10 -25 -10 -5 0 -3 5 5 10 8 5 20 10 25 10 6 0 3 -5 -5 -10z m-116 -85
c-14 -19 -28 -35 -29 -35 -2 0 -12 -3 -22 -7 -10 -3 2 12 27 35 25 23 46 41
48 42 2 0 -9 -16 -24 -35z"/>
<path d="M1885 2560 c-10 -11 -14 -20 -9 -20 5 0 15 9 22 20 7 11 11 20 9 20
-2 0 -12 -9 -22 -20z"/>
<path d="M1655 2539 c-4 -11 -4 -23 -1 -26 3 -4 6 -1 6 5 0 6 7 18 16 26 13
14 13 16 0 16 -8 0 -18 -9 -21 -21z"/>
<path d="M1890 2520 c-8 -26 -7 -41 2 -32 6 6 8 16 5 24 -3 7 -6 11 -7 8z"/>
<path d="M1130 2495 c0 -8 2 -15 4 -15 2 0 6 7 10 15 3 8 1 15 -4 15 -6 0 -10
-7 -10 -15z"/>
<path d="M2072 2439 c-55 -45 -60 -64 -13 -48 19 7 32 20 36 37 3 14 14 32 23
39 9 7 14 13 11 13 -4 0 -29 -19 -57 -41z"/>
<path d="M1551 2443 c-1 -6 -4 -20 -7 -30 -5 -17 -5 -17 6 0 6 10 9 23 6 30
-3 9 -5 9 -5 0z"/>
<path d="M2118 2428 c-18 -22 -17 -35 1 -23 15 8 34 45 24 45 -4 0 -16 -10
-25 -22z"/>
<path d="M2112 2376 c-29 -28 -52 -56 -52 -62 0 -6 -9 -19 -20 -29 -11 -10
-20 -25 -20 -33 0 -12 5 -11 23 5 12 11 30 23 40 26 10 4 16 11 12 16 -3 6 1
13 9 18 14 8 70 103 64 108 -2 1 -27 -21 -56 -49z"/>
<path d="M2055 2370 c-4 -6 -10 -8 -15 -5 -5 3 -12 0 -16 -6 -5 -8 -3 -9 6 -4
8 5 11 4 6 -3 -4 -6 -14 -8 -23 -5 -12 5 -15 2 -11 -9 4 -9 1 -21 -5 -29 -7
-7 -1 -5 13 4 14 10 37 26 52 36 16 10 25 21 21 24 -9 10 -21 9 -28 -3z"/>
<path d="M1086 2345 c-9 -26 -7 -32 5 -12 6 10 9 21 6 23 -2 3 -7 -2 -11 -11z"/>
<path d="M1895 2180 c-3 -5 -1 -10 4 -10 6 0 11 5 11 10 0 6 -2 10 -4 10 -3 0
-8 -4 -11 -10z"/>
<path d="M1165 2128 c-4 -10 -4 -26 0 -35 8 -17 8 -17 12 0 3 9 3 25 0 35 -4
16 -4 16 -12 0z"/>
<path d="M1210 2078 c0 -7 5 -20 10 -28 8 -12 10 -11 10 7 0 12 -4 25 -10 28
-5 3 -10 0 -10 -7z"/>
<path d="M1270 1994 c0 -56 29 -96 43 -60 6 16 -23 96 -35 96 -5 0 -8 -16 -8
-36z"/>
<path d="M1746 1904 c-9 -24 -8 -25 13 -12 11 7 17 16 15 20 -8 13 -21 9 -28
-8z"/>
<path d="M1668 1903 c7 -3 16 -2 19 1 4 3 -2 6 -13 5 -11 0 -14 -3 -6 -6z"/>
<path d="M4290 1430 c0 -12 8 -12 35 0 18 8 17 9 -7 9 -16 1 -28 -3 -28 -9z"/>
<path d="M4570 1226 c0 -2 7 -7 16 -10 8 -3 12 -2 9 4 -6 10 -25 14 -25 6z"/>
<path d="M1186 1434 c-9 -24 -7 -28 9 -14 17 14 20 30 6 30 -5 0 -12 -7 -15
-16z"/>
<path d="M1100 998 c0 -23 3 -29 9 -19 8 12 4 51 -5 51 -2 0 -4 -15 -4 -32z"/>
<path d="M1023 962 c-3 -9 -15 -25 -27 -34 -17 -14 -19 -19 -8 -30 8 -8 15 -9
20 -3 4 6 16 15 27 21 11 6 21 20 23 31 4 26 -26 39 -35 15z"/>
<path d="M1280 611 c0 -13 12 -20 26 -14 20 8 17 19 -6 20 -11 1 -20 -2 -20
-6z"/>
<path d="M1892 5083 c4 -44 23 -55 31 -17 6 35 -1 54 -20 54 -10 0 -13 -10
-11 -37z"/>
<path d="M2551 5001 c-19 -12 -5 -52 17 -45 14 5 15 4 2 -5 -13 -9 -12 -12 5
-25 22 -17 92 -15 188 4 31 6 62 8 67 5 5 -3 21 2 35 12 26 20 33 36 11 27 -7
-3 -16 2 -19 10 -5 12 -13 13 -37 6 -19 -6 -41 -5 -57 1 -20 7 -24 6 -20 -4 6
-16 -49 -22 -78 -8 -22 11 -85 31 -94 31 -3 0 -12 -4 -20 -9z"/>
<path d="M4516 4833 c-12 -12 -6 -19 19 -21 14 -1 25 0 25 3 0 9 -37 24 -44
18z"/>
<path d="M4446 4621 c-3 -5 1 -11 9 -14 9 -4 12 -1 8 9 -6 16 -10 17 -17 5z"/>
<path d="M4000 4556 c0 -2 8 -10 18 -17 15 -13 16 -12 3 4 -13 16 -21 21 -21
13z"/>
<path d="M4972 2957 c-7 -8 -9 -17 -5 -20 3 -4 -2 -7 -11 -7 -14 0 -11 -7 13
-31 17 -17 31 -36 32 -42 0 -7 5 -1 10 12 7 18 6 28 -6 41 -8 9 -12 19 -9 23
3 3 2 13 -3 22 -8 14 -11 14 -21 2z"/>
<path d="M2868 2324 c-5 -4 -8 -16 -8 -28 0 -14 3 -17 11 -9 6 6 9 19 7 28 -1
9 -6 13 -10 9z"/>
<path d="M2956 2275 c-9 -26 -7 -32 5 -12 6 10 9 21 6 23 -2 3 -7 -2 -11 -11z"/>
<path d="M2920 2235 c-1 -5 -5 -29 -9 -53 -9 -43 2 -69 14 -32 4 11 11 18 16
14 6 -3 7 5 3 23 -8 32 -23 63 -24 48z"/>
<path d="M2886 2213 c-6 -14 -5 -15 5 -6 7 7 10 15 7 18 -3 3 -9 -2 -12 -12z"/>
<path d="M3060 2035 c-20 -24 -6 -28 15 -5 10 11 13 20 8 20 -6 0 -16 -7 -23
-15z"/>
<path d="M2896 1993 c-6 -14 -5 -15 5 -6 7 7 10 15 7 18 -3 3 -9 -2 -12 -12z"/>
<path d="M3156 1905 c-11 -8 -16 -18 -12 -22 3 -4 16 3 29 15 24 25 12 29 -17
7z"/>
<path d="M3251 1901 c-17 -11 -5 -17 39 -19 l35 -2 -25 14 c-30 18 -31 18 -49
7z"/>
<path d="M3201 1863 c-14 -9 -21 -11 -17 -5 12 19 2 14 -34 -18 -34 -31 -34
-38 1 -20 43 23 15 -1 -41 -36 -48 -30 -65 -47 -86 -90 -14 -29 -25 -56 -25
-59 1 -8 16 -6 17 3 2 25 39 94 55 102 26 15 33 12 18 -7 -13 -15 -12 -15 8
-2 16 9 19 16 10 21 -18 12 12 29 41 25 20 -4 27 4 23 25 0 4 23 20 52 34 45
23 49 28 32 35 -28 11 -28 11 -54 -8z"/>
<path d="M2760 1850 c0 -11 2 -20 4 -20 2 0 6 9 9 20 3 11 1 20 -4 20 -5 0 -9
-9 -9 -20z"/>
<path d="M3215 1820 c-3 -5 3 -10 14 -10 11 0 23 5 26 10 3 6 -3 10 -14 10
-11 0 -23 -4 -26 -10z"/>
<path d="M2707 1791 c-4 -17 -3 -21 5 -13 5 5 8 16 6 23 -3 8 -7 3 -11 -10z"/>
<path d="M2857 1769 c-4 -16 -3 -18 9 -8 7 6 11 15 8 20 -8 13 -11 11 -17 -12z"/>
<path d="M3019 1754 l-24 -27 28 18 c15 9 27 21 27 26 0 14 -5 11 -31 -17z"/>
<path d="M3225 1769 c-12 -18 3 -22 20 -5 14 14 14 16 1 16 -8 0 -18 -5 -21
-11z"/>
<path d="M1995 1760 c-3 -6 1 -7 9 -4 18 7 21 14 7 14 -6 0 -13 -4 -16 -10z"/>
<path d="M3160 1750 c-13 -8 -13 -10 2 -10 9 0 20 5 23 10 8 13 -5 13 -25 0z"/>
<path d="M2830 1730 c-8 -5 -12 -12 -9 -15 4 -3 12 1 19 10 14 17 11 19 -10 5z"/>
<path d="M2610 1720 c0 -5 5 -10 10 -10 6 0 10 5 10 10 0 6 -4 10 -10 10 -5 0
-10 -4 -10 -10z"/>
<path d="M3220 1720 c-9 -6 -10 -10 -3 -10 6 0 15 5 18 10 8 12 4 12 -15 0z"/>
<path d="M3105 1700 c-3 -5 -2 -10 4 -10 5 0 13 5 16 10 3 6 2 10 -4 10 -5 0
-13 -4 -16 -10z"/>
<path d="M3534 1695 c-4 -8 -15 -15 -27 -15 -11 0 -18 -3 -14 -6 9 -10 59 5
52 15 -3 5 1 12 7 14 10 4 10 6 0 6 -7 1 -15 -6 -18 -14z"/>
<path d="M3100 1646 c-29 -30 -59 -65 -67 -76 -11 -15 -18 -18 -23 -10 -4 7
16 34 49 67 31 31 44 46 29 33 -28 -23 -39 -16 -15 9 10 11 9 13 -3 9 -8 -3
-16 -14 -18 -25 -2 -11 -21 -37 -44 -59 -36 -34 -40 -36 -35 -16 3 13 4 22 1
19 -13 -13 -72 -117 -66 -117 4 0 18 18 32 40 15 24 28 36 34 30 6 -6 4 -15
-4 -25 -8 -10 -9 -15 -2 -15 6 0 16 10 23 21 8 15 13 18 18 10 5 -8 32 16 77
66 38 43 73 81 79 85 6 5 6 8 -2 8 -6 0 -35 -25 -63 -54z"/>
<path d="M3595 1680 c17 -4 44 -8 60 -8 l30 0 -30 8 c-16 4 -43 8 -60 8 l-30
0 30 -8z"/>
<path d="M3320 1670 c0 -5 7 -10 16 -10 8 0 12 5 9 10 -3 6 -10 10 -16 10 -5
0 -9 -4 -9 -10z"/>
<path d="M3445 1671 c-3 -5 -20 -13 -38 -17 -31 -7 -32 -8 -7 -15 23 -6 22 -7
-8 -8 -18 -1 -31 3 -27 8 3 5 -12 2 -34 -7 -22 -9 -34 -20 -29 -24 6 -3 17 -4
25 -1 7 3 13 1 13 -5 0 -6 16 -6 46 0 34 8 49 7 57 -2 9 -10 9 -11 0 -6 -6 3
-14 2 -18 -4 -10 -16 24 -12 55 6 21 13 31 14 46 5 18 -11 18 -12 -2 -6 -12 3
-26 0 -33 -9 -9 -11 -5 -15 26 -22 21 -4 40 -8 43 -9 3 -1 19 -5 35 -10 17 -4
35 -13 40 -19 6 -7 33 -20 60 -30 110 -41 171 -78 159 -97 -2 -4 8 -16 23 -25
15 -10 43 -31 61 -48 29 -27 48 -26 20 2 -13 13 1 16 17 4 6 -4 23 -24 39 -45
30 -41 29 -62 -2 -34 -30 28 -45 21 -28 -11 17 -33 77 -82 101 -82 8 0 20 -10
26 -22 7 -18 8 -13 4 21 -3 24 -12 49 -19 55 -18 15 -66 81 -66 91 0 17 117
-111 144 -157 15 -25 33 -49 41 -52 16 -6 7 12 -47 88 -16 21 -28 44 -28 51 0
6 -11 18 -25 25 -13 7 -35 29 -48 49 -13 20 -44 59 -69 86 -24 28 -54 65 -67
83 -12 18 -26 30 -30 27 -4 -2 -21 9 -36 25 -16 17 -35 30 -42 30 -8 0 -26 9
-41 20 -15 11 -59 33 -97 49 -59 23 -80 27 -133 23 -34 -2 -65 -9 -69 -15 -3
-6 -1 -7 5 -3 7 4 20 2 29 -3 15 -8 11 -10 -19 -11 -41 0 -68 8 -68 21 0 5 6
9 14 9 8 0 16 7 20 15 6 16 -9 21 -19 6z m155 -76 c0 -12 -19 -12 -23 0 -4 9
-1 12 9 8 7 -3 14 -7 14 -8z m55 -14 c-6 -4 -23 -11 -38 -15 -25 -6 -27 -5
-15 8 7 8 24 15 38 16 14 0 20 -4 15 -9z m69 -46 c12 -7 40 -18 63 -24 28 -8
49 -22 64 -43 21 -29 22 -31 3 -24 -10 5 -27 11 -36 13 -10 3 -18 9 -18 12 0
7 -31 22 -137 68 -18 8 -33 16 -33 20 0 9 71 -7 94 -22z"/>
<path d="M3548 1663 c6 -2 18 -2 25 0 6 3 1 5 -13 5 -14 0 -19 -2 -12 -5z"/>
<path d="M3169 1623 c-13 -16 -12 -17 4 -4 16 13 21 21 13 21 -2 0 -10 -8 -17
-17z"/>
<path d="M3278 1633 c7 -3 16 -2 19 1 4 3 -2 6 -13 5 -11 0 -14 -3 -6 -6z"/>
<path d="M3160 1589 c-31 -27 -31 -29 -5 -11 17 10 39 24 50 30 14 8 15 11 5
11 -8 0 -31 -13 -50 -30z"/>
<path d="M3225 1596 c-20 -16 -25 -25 -16 -30 7 -5 15 -5 18 -2 4 3 0 6 -8 7
-8 0 3 9 24 18 25 12 34 20 24 24 -8 3 -27 -5 -42 -17z"/>
<path d="M2190 1604 c0 -7 52 -25 57 -20 2 2 -10 8 -26 14 -17 6 -31 9 -31 6z"/>
<path d="M2140 1581 c19 -10 50 -22 67 -25 18 -4 36 -13 40 -20 10 -17 60 -42
98 -49 17 -3 39 -9 50 -13 l20 -7 -20 17 c-20 17 -20 17 2 7 27 -14 56 -14 48
-1 -4 6 1 7 12 3 16 -6 16 -5 4 11 -8 9 -20 15 -28 12 -13 -5 -31 1 -130 45
-24 10 -43 15 -43 10 0 -5 7 -12 16 -15 9 -4 14 -9 11 -12 -3 -3 -38 8 -78 25
-81 34 -124 42 -69 12z m195 -61 c3 -6 -1 -7 -9 -4 -18 7 -21 14 -7 14 6 0 13
-4 16 -10z"/>
<path d="M3278 1583 c7 -3 16 -2 19 1 4 3 -2 6 -13 5 -11 0 -14 -3 -6 -6z"/>
<path d="M3088 1535 c-16 -13 -28 -27 -28 -30 0 -10 48 26 54 41 7 18 6 18
-26 -11z"/>
<path d="M3350 1544 c-19 -7 -47 -13 -62 -13 -15 -1 -29 -5 -33 -10 -3 -6 11
-9 35 -8 22 2 41 -2 43 -7 2 -5 12 -6 23 -2 19 8 19 8 -1 16 -13 5 2 7 40 6
33 -1 70 -7 82 -14 12 -7 30 -12 40 -11 13 1 11 3 -7 9 -14 4 -18 9 -10 10 26
3 -33 18 -78 19 -26 1 -41 5 -37 11 3 6 5 9 3 9 -2 -1 -19 -7 -38 -15z"/>
<path d="M3245 1540 c-3 -6 1 -7 9 -4 18 7 21 14 7 14 -6 0 -13 -4 -16 -10z"/>
<path d="M2185 1530 c3 -5 13 -10 21 -10 8 0 14 -4 14 -8 0 -4 14 -13 30 -19
47 -18 35 2 -15 26 -50 24 -59 25 -50 11z"/>
<path d="M3138 1523 c7 -3 16 -2 19 1 4 3 -2 6 -13 5 -11 0 -14 -3 -6 -6z"/>
<path d="M3019 1500 c-14 -12 -18 -19 -9 -18 18 4 44 27 38 34 -3 2 -16 -5
-29 -16z"/>
<path d="M1793 1498 c-20 -26 -26 -41 -15 -34 12 7 36 46 29 46 -3 0 -9 -6
-14 -12z"/>
<path d="M3206 1485 c-11 -8 -29 -15 -41 -15 -12 0 -30 -7 -41 -15 -18 -14
-18 -14 9 -15 16 0 26 -4 22 -10 -10 -16 21 -12 35 5 14 17 35 21 25 5 -8 -14
27 1 40 16 6 7 19 14 30 17 11 3 0 6 -25 7 -42 2 -43 3 -15 10 28 7 28 8 5 8
-14 1 -34 -5 -44 -13z"/>
<path d="M3060 1480 c-8 -5 -12 -12 -9 -15 4 -3 12 1 19 10 14 17 11 19 -10 5z"/>
<path d="M3690 1475 c14 -8 30 -14 35 -14 6 0 -1 6 -15 14 -14 8 -29 14 -35
14 -5 0 1 -6 15 -14z"/>
<path d="M2314 1465 c15 -8 38 -15 50 -15 17 0 18 -2 6 -10 -19 -12 -12 -17
30 -23 19 -2 27 -2 18 0 -17 4 -22 14 -15 30 3 9 -62 31 -93 32 -25 1 -25 1 4
-14z"/>
<path d="M2460 1465 c15 -18 7 -19 -21 -2 -17 9 -23 9 -26 0 -7 -18 0 -27 22
-31 11 -1 22 -7 23 -12 2 -6 13 -10 25 -10 22 1 22 1 3 15 -11 8 -14 15 -8 15
9 0 9 5 0 20 -7 11 -17 20 -22 20 -4 0 -3 -7 4 -15z"/>
<path d="M3814 1421 c11 -11 23 -21 28 -21 14 0 -1 19 -25 31 -22 12 -22 12
-3 -10z"/>
<path d="M2950 1410 c-9 -6 -10 -10 -3 -10 6 0 15 5 18 10 8 12 4 12 -15 0z"/>
<path d="M2427 1379 c7 -7 15 -10 18 -7 3 3 -2 9 -12 12 -14 6 -15 5 -6 -5z"/>
<path d="M3107 1308 c6 -11 43 -10 43 1 0 5 -11 8 -24 7 -13 0 -22 -4 -19 -8z"/>
<path d="M5080 1310 c0 -5 5 -10 10 -10 6 0 10 5 10 10 0 6 -4 10 -10 10 -5 0
-10 -4 -10 -10z"/>
<path d="M3151 1291 c-14 -26 10 -47 36 -32 16 9 14 11 -12 12 -23 1 -25 3 -8
6 14 3 20 9 16 19 -7 19 -20 18 -32 -5z"/>
<path d="M2190 1200 c0 -5 5 -10 11 -10 5 0 7 5 4 10 -3 6 -8 10 -11 10 -2 0
-4 -4 -4 -10z"/>
<path d="M4050 1143 c11 -16 33 -45 47 -66 14 -20 27 -36 29 -34 9 8 -42 98
-58 103 -10 3 -18 10 -18 15 0 5 -5 9 -11 9 -6 0 -1 -12 11 -27z"/>
<path d="M3215 1130 c3 -5 10 -10 16 -10 5 0 9 5 9 10 0 6 -7 10 -16 10 -8 0
-12 -4 -9 -10z"/>
<path d="M4140 1131 c0 -5 5 -13 10 -16 6 -3 10 -2 10 4 0 5 -4 13 -10 16 -5
3 -10 2 -10 -4z"/>
<path d="M3268 1093 c7 -3 16 -2 19 1 4 3 -2 6 -13 5 -11 0 -14 -3 -6 -6z"/>
<path d="M4355 1020 c10 -11 20 -20 22 -20 2 0 -2 9 -9 20 -7 11 -17 20 -22
20 -5 0 -1 -9 9 -20z"/>
<path d="M4734 1008 c20 -31 50 -39 39 -11 -5 12 -3 14 7 8 9 -6 11 -4 6 4 -5
7 -15 10 -23 7 -9 -4 -23 -1 -31 6 -12 10 -11 6 2 -14z"/>
<path d="M2585 941 c4 -8 2 -17 -6 -22 -9 -6 -10 -9 -2 -9 19 0 27 21 13 33
-10 9 -11 9 -5 -2z"/>
<path d="M2645 940 c-4 -6 -11 -8 -16 -5 -5 4 -9 -1 -9 -10 0 -11 5 -15 14
-12 8 3 17 1 19 -6 2 -7 4 0 4 16 1 29 -2 33 -12 17z"/>
<path d="M2670 928 c0 -4 5 -8 10 -8 6 0 10 -7 10 -16 0 -8 5 -12 11 -9 6 4 8
13 5 20 -3 8 0 16 7 19 7 2 0 4 -15 3 -16 -1 -28 -5 -28 -9z"/>
<path d="M3410 890 c0 -6 7 -10 15 -10 8 0 15 2 15 4 0 2 -7 6 -15 10 -8 3
-15 1 -15 -4z"/>
<path d="M3340 886 c0 -2 7 -6 15 -10 8 -3 15 -1 15 4 0 6 -7 10 -15 10 -8 0
-15 -2 -15 -4z"/>
<path d="M1651 834 c0 -11 3 -14 6 -6 3 7 2 16 -1 19 -3 4 -6 -2 -5 -13z"/>
<path d="M3450 840 c0 -5 5 -10 11 -10 5 0 7 5 4 10 -3 6 -8 10 -11 10 -2 0
-4 -4 -4 -10z"/>
<path d="M3379 812 c21 -31 41 -42 41 -24 0 9 -25 33 -49 47 -9 5 -5 -6 8 -23z"/>
<path d="M1635 735 c-4 -42 -4 -79 -1 -82 3 -4 6 13 6 36 0 26 4 40 10 36 12
-8 13 54 1 74 -5 8 -11 -15 -16 -64z"/>
<path d="M1630 630 c0 -24 20 -89 29 -94 11 -7 -8 86 -20 99 -6 5 -9 3 -9 -5z"/>
<path d="M1685 450 c9 -15 45 -32 45 -22 0 5 -12 14 -26 20 -14 7 -23 8 -19 2z"/>
<path d="M1496 438 c-4 -9 -6 -27 -4 -39 2 -18 5 -20 14 -8 6 8 8 25 4 39 -6
21 -8 22 -14 8z"/>
<path d="M4296 176 c-18 -37 -22 -126 -6 -126 6 0 9 3 8 7 -1 5 4 39 11 76 15
78 11 93 -13 43z"/>
<path d="M4819 181 c-14 -15 -14 -20 2 -47 17 -31 17 -31 -7 -26 -19 3 -24 0
-24 -17 0 -12 -7 -24 -15 -27 -26 -10 -17 -41 15 -54 29 -12 154 -10 167 3 3
3 -2 16 -11 29 -9 12 -16 30 -16 40 0 9 -12 30 -27 46 -16 16 -35 39 -43 51
-17 25 -20 25 -41 2z"/>
<path d="M4924 178 c-4 -6 8 -25 29 -45 27 -25 46 -33 73 -33 40 0 43 17 5 36
-12 6 -32 21 -45 33 -25 23 -51 27 -62 9z"/>
<path d="M4405 40 c-3 -5 -1 -10 4 -10 6 0 11 5 11 10 0 6 -2 10 -4 10 -3 0
-8 -4 -11 -10z"/>
</g>
</svg>
